/* XPM */
static char * close_prelight_xpm[] = {
"22 22 61 1",
" 	c None",
".	c #3F3F3F",
"+	c #454040",
"@	c #7E4745",
"#	c #B34C4A",
"$	c #D5504D",
"%	c #EA524F",
"&	c #E6524F",
"*	c #B94D4A",
"=	c #764544",
"-	c #DA514E",
";	c #EF5350",
">	c #7E4645",
",	c #A44B49",
"'	c #994948",
")	c #9E4A48",
"!	c #714443",
"~	c #774544",
"{	c #3E3E3E",
"]	c #443F3F",
"^	c #834645",
"/	c #F8B0AF",
"(	c #F8B3B2",
"_	c #F05D5A",
":	c #F05E5B",
"<	c #F8B4B3",
"[	c #F8AFAE",
"}	c #7D4544",
"|	c #3D3D3D",
"1	c #A84A49",
"2	c #FACCCB",
"3	c #F8B7B6",
"4	c #F8B8B6",
"5	c #F8B3B1",
"6	c #3C3C3C",
"7	c #F8B6B5",
"8	c #F8B9B8",
"9	c #F05E5C",
"0	c #F05F5C",
"a	c #AC4A48",
"b	c #754342",
"c	c #F8AFAD",
"d	c #7B4342",
"e	c #3F3A3A",
"f	c #D34F4D",
"g	c #393939",
"h	c #3A3A3A",
"i	c #734241",
"j	c #974746",
"k	c #A34A48",
"l	c #3E3939",
"m	c #A24947",
"n	c #383838",
"o	c #744241",
"p	c #6E403F",
"q	c #3B3B3B",
"r	c #3D3838",
"s	c #E7524F",
"t	c #7A4341",
"u	c #373737",
"v	c #363636",
"......................",
"......+@#$%&$*@+......",
".....=-;;;;;;;;$>.....",
"....,;;;;;;;;;;;;'....",
"...,;;;;;;;;;;;;;;)...",
"..!;;;;;;;;;;;;;;;;~..",
".{-;;;;;;;;;;;;;;;;$].",
"{^;;;;;/(_;;:<[;;;;;}{",
"|1;;;;;(23__425;;;;;*|",
"|$;;;;;_423323_;;;;;$|",
"6%;;;;;;_72289;;;;;;&6",
"6%;;;;;;_72280;;;;;;%6",
"6$;;;;;_423324_;;;;;$6",
"6#;;;;;<24__32(;;;;;a6",
"6b;;;;;[(:;;_(c;;;;;d6",
"6ef;;;;;;;;;;;;;;;;-g6",
"|hd;;;;;;;;;;;;;;;;ih|",
"|6gj;;;;;;;;;;;;;;kg6|",
"|6hlj;;;;;;;;;;;;mnh6|",
"{|6hno-;;;;;;;;$pnh6|{",
".{|qhnroa$%s$atunhq|{.",
"..{|qhguuvvvvuughq|{.."};
