/* XPM */
static char * maximize_pressed_xpm[] = {
"22 22 24 1",
" 	c None",
".	c #3F3F3F",
"+	c #505050",
"@	c #767676",
"#	c #8F8F8F",
"$	c #9C9C9C",
"%	c #999999",
"&	c #929292",
"*	c #777777",
"=	c #434343",
"-	c #7A7A7A",
";	c #9D9D9D",
">	c #7D7D7D",
",	c #8B8B8B",
"'	c #888888",
")	c #7F7F7F",
"!	c #E9E9E9",
"~	c #FFFFFF",
"{	c #E8E8E8",
"]	c #545454",
"^	c #7C7C7C",
"/	c #A4A4A4",
"(	c #787878",
"_	c #4F4F4F",
"                      ",
"                      ",
"  ..................  ",
"  .....+@#$%&*+.....  ",
"  ...=-;;;;;;;$>=...  ",
"  ..=,;;;;;;;;;;'=..  ",
"  ..-;;;;;;;;;;;;)..  ",
"  .+;;;!~~~~~~{;;$].  ",
"  .^;;;~~~~~~~~;;;*.  ",
"  .&;;;~~/;;/~~;;;#.  ",
"  .$;;;~~;;;;~~;;;%.  ",
"  .$;;;~~;;;;~~;;;$.  ",
"  .#;;;~~/;;/~~;;;&.  ",
"  .^;;;~~~~~~~~;;;(.  ",
"  .];;;{~~~~~~{;;;].  ",
"  ..-;;;;;;;;;;;;-..  ",
"  ..=';;;;;;;;;;,...  ",
"  ...=>;;;;;;;$-....  ",
"  .....+^&%%#*_.....  ",
"  ..................  ",
"                      ",
"                      "};
