/* XPM */
static char * shade_toggled_active_xpm[] = {
"22 22 19 1",
" 	c None",
".	c #3F3F3F",
"+	c #484848",
"@	c #5D5D5D",
"#	c #6E6E6E",
"$	c #777777",
"%	c #757575",
"&	c #707070",
"*	c #5E5E5E",
"=	c #414141",
"-	c #5F5F5F",
";	c #787878",
">	c #626262",
",	c #6B6B6B",
"'	c #696969",
")	c #636363",
"!	c #4A4A4A",
"~	c #616161",
"{	c #474747",
"                      ",
"                      ",
"  ..................  ",
"  .....+@#$%&*+.....  ",
"  ...=-;;;;;;;$>=...  ",
"  ..=,;;;;;;;;;;'=..  ",
"  ..-;;;;;;;;;;;;)..  ",
"  .+;;;;;;;;;;;;;$!.  ",
"  .~;;;;;;;;;;;;;;*.  ",
"  .&;;;;;;;;;;;;;;#.  ",
"  .$;;;;;;;;;;;;;;%.  ",
"  .$;;;;;;;;;;;;;;$.  ",
"  .#;;;;;;;;;;;;;;&.  ",
"  .~;;;;;;;;;;;;;;-.  ",
"  .!;;;;;;;;;;;;;;!.  ",
"  ..-;;;;;;;;;;;;-..  ",
"  ..=';;;;;;;;;;,...  ",
"  ...=>;;;;;;;$-....  ",
"  .....+~&%%#*{.....  ",
"  ..................  ",
"                      ",
"                      "};
