/* XPM */
static char * stick_prelight_xpm[] = {
"22 22 28 1",
" 	c None",
".	c #3F3F3F",
"+	c #4B4B4B",
"@	c #666666",
"#	c #7A7A7A",
"$	c #848484",
"%	c #838383",
"&	c #7C7C7C",
"*	c #676767",
"=	c #424242",
"-	c #686868",
";	c #868686",
">	c #6C6C6C",
",	c #777777",
"'	c #747474",
")	c #6D6D6D",
"!	c #AEAEAE",
"~	c #D8D8D8",
"{	c #B0B0B0",
"]	c #4E4E4E",
"^	c #6B6B6B",
"/	c #D4D4D4",
"(	c #DBDBDB",
"_	c #D5D5D5",
":	c #ADADAD",
"<	c #D7D7D7",
"[	c #D6D6D6",
"}	c #494949",
"                      ",
"                      ",
"  ..................  ",
"  .....+@#$%&*+.....  ",
"  ...=-;;;;;;;$>=...  ",
"  ..=,;;;;;;;;;;'=..  ",
"  ..-;;;;;;;;;;;;)..  ",
"  .+;;;;;!~~{;;;;$].  ",
"  .^;;;;/((((_;;;;*.  ",
"  .&;;;!((((((:;;;#.  ",
"  .$;;;~((((((<;;;%.  ",
"  .$;;;~(((((([;;;$.  ",
"  .#;;;{((((((:;;;&.  ",
"  .^;;;;_((((/;;;;-.  ",
"  .];;;;;:[[:;;;;;].  ",
"  ..-;;;;;;;;;;;;-..  ",
"  ..=';;;;;;;;;;,...  ",
"  ...=>;;;;;;;$-....  ",
"  .....+^&%%#*}.....  ",
"  ..................  ",
"                      ",
"                      "};
