/* XPM */
static char * stick_inactive_xpm[] = {
"22 22 15 1",
" 	c None",
".	c #3F3F3F",
"+	c #434343",
"@	c #4B4B4B",
"#	c #525252",
"$	c #555555",
"%	c #535353",
"&	c #404040",
"*	c #4C4C4C",
"=	c #565656",
"-	c #4D4D4D",
";	c #505050",
">	c #444444",
",	c #545454",
"'	c #424242",
"                      ",
"                      ",
"  ..................  ",
"  .....+@#$$%@+.....  ",
"  ...&*=======$-&...  ",
"  ..&;==========;&..  ",
"  ..*============-..  ",
"  .+=============$>.  ",
"  .-==============@.  ",
"  .%==============#.  ",
"  .$==============$.  ",
"  .$==============$.  ",
"  .#==============%.  ",
"  .-==============*.  ",
"  .>==============>.  ",
"  ..*============*..  ",
"  ..&;==========;...  ",
"  ...&-=======$*....  ",
"  .....+-%,$#@'.....  ",
"  ..................  ",
"                      ",
"                      "};
