/* XPM */
static char * top_right_inactive_xpm[] = {
"8 37 27 1",
" 	c None",
".	c #525252",
"+	c #5A5A5A",
"@	c #3F3F3F",
"#	c #414141",
"$	c #444444",
"%	c #4B4B4B",
"&	c #3F4040",
"*	c #403F3F",
"=	c #3E3E3E",
"-	c #3D3D3D",
";	c #3D3D3C",
">	c #3C3D3C",
",	c #3C3C3C",
"'	c #3B3B3A",
")	c #3A3A3A",
"!	c #393939",
"~	c #383839",
"{	c #383837",
"]	c #373737",
"^	c #363637",
"/	c #363636",
"(	c #353535",
"_	c #343434",
":	c #343334",
"<	c #333333",
"[	c #333332",
"..+     ",
"@@#$%   ",
"@@@@#%  ",
"@@@@@#% ",
"@@@@@@# ",
"@@@@@@@%",
"@@@@@@@#",
"@@@@@@@@",
"@@@@@@@@",
"@@@@@@@@",
"@@@@@@@@",
"@@@@@@@@",
"@@@@@@@@",
"@@@@@@@@",
"@@@@@@@@",
"@@@@@@@&",
"@@@@@@@*",
"@@@@@@@@",
"@@@@@@@=",
"@@@@@@@-",
"@@@@@@@;",
"@@@@@@@>",
"@@@@@@@,",
"@@@@@@@'",
"@@@@@@@)",
"@@@@@@@)",
"@@@@@@@!",
"@@@@@@@~",
"@@@@@@@{",
"@@@@@@@]",
"@@@@@@@^",
"@@@@@@@/",
"@@@@@@@(",
"@@@@@@@_",
"@@@@@@@:",
"@@@@@@@<",
"@@@@@@@["};
