/* XPM */
static char * close_pressed_xpm[] = {
"22 22 58 1",
" 	c None",
".	c #3F3F3F",
"+	c #3E3E3E",
"@	c #404145",
"#	c #535D88",
"$	c #6477C2",
"%	c #6E85E4",
"&	c #748EF7",
"*	c #738DF4",
"=	c #6D85E3",
"-	c #6579C7",
";	c #515A80",
">	c #6F88E8",
",	c #7590FC",
"'	c #525D87",
")	c #5F70B2",
"!	c #5A6AA5",
"~	c #5C6CAB",
"{	c #4F587B",
"]	c #515A81",
"^	c #55608E",
"/	c #E0E6FE",
"(	c #E3E9FE",
"_	c #819AFC",
":	c #E4E9FE",
"<	c #DFE5FE",
"[	c #6072B6",
"}	c #FFFFFF",
"|	c #E7ECFE",
"1	c #E8ECFE",
"2	c #E3E8FE",
"3	c #3D3D3D",
"4	c #8099FC",
"5	c #E7EBFE",
"6	c #E9EEFF",
"7	c #829AFC",
"8	c #728DF4",
"9	c #839BFC",
"0	c #6274BC",
"a	c #505980",
"b	c #DEE4FE",
"c	c #515C86",
"d	c #3E3F43",
"e	c #6D85E2",
"f	c #3B3B3B",
"g	c #505B86",
"h	c #4E577D",
"i	c #5969A4",
"j	c #5D6FB0",
"k	c #3C3D41",
"l	c #3A3A3A",
"m	c #4E577E",
"n	c #4B5477",
"o	c #3B3C40",
"p	c #6173BB",
"q	c #505B85",
"r	c #393939",
"s	c #383838",
".........++++.........",
"......@#$%&*=-#@......",
"....+;>,,,,,,,,%'+....",
"...+),,,,,,,,,,,,!+...",
"..+),,,,,,,,,,,,,,~+..",
".+{,,,,,,,,,,,,,,,,]+.",
".+>,,,,,,,,,,,,,,,,%@.",
"+^,,,,,/(_,,_:<,,,,,'+",
"+[,,,,,(}|__1}2,,,,,-+",
"3=,,,,,_1}||}|_,,,,,=3",
"3&,,,,,,45}}67,,,,,,83",
"3&,,,,,,45}}69,,,,,,&3",
"3=,,,,,_1}||}1_,,,,,=3",
"3$,,,,,:}1__|}(,,,,,03",
"3a,,,,,<(_,,_(b,,,,,c3",
"+de,,,,,,,,,,,,,,,,>f+",
"+3g,,,,,,,,,,,,,,,,h3+",
".+fi,,,,,,,,,,,,,,jf+.",
".+3ki,,,,,,,,,,,,jl3+.",
"..+3lm>,,,,,,,,%nl3+..",
"...+3fomp=&*%pqrf3+...",
"....++3flrssrlf3++...."};
