/* XPM */
static char * bottom_right_inactive_xpm[] = {
"33 33 5 1",
" 	c None",
".	c #000000 s inactive_color_2",
"+	c #FFFFFF",
"@	c #CBCBCB",
"#	c #9E9E9E",
"                            ..+@#",
"                            ..+@#",
"                            ..+@#",
"                            ..+@#",
"                            ..+@#",
"                            ..+@#",
"                            ..+@#",
"                            ..+@#",
"                            ..+@#",
"                            ..+@#",
"                            ..+@#",
"                            ..+@#",
"                            ..+@#",
"                            ..+@#",
"                            ..+@#",
"                            ..+@#",
"                            ..+@#",
"                            ..+@#",
"                            ..+@#",
"                            ..+@#",
"                            ..+@#",
"                            ..+@#",
"                            ..+@#",
"                            ..+@#",
"                            ..+@#",
"                            ..+@#",
"                            ..+@#",
"                            ..+@#",
"..............................+@#",
"..............................+@#",
"+++++++++++++++++++++++++++++++@#",
"@@@@@@@@@@@@@@@@@@@@@@@@@@@@@@@@#",
"#################################"};
