/* XPM */
static char * bottom_inactive_xpm[] = {
"16 5 5 1",
" 	c None",
".	c #4508A1 s inactive_color_2",
"+	c #FFFFFF",
"@	c #CBCBCB",
"#	c #9E9E9E",
"................",
"................",
"++++++++++++++++",
"@@@@@@@@@@@@@@@@",
"################"};
