/* XPM */
static char * bottom_left_active_xpm[] = {
"33 33 5 1",
" 	c None",
".	c #9E9E9E",
"+	c #CBCBCB",
"@	c #FFFFFF",
"#	c #000000 s inactive_color_2",
".+@##                            ",
".+@##                            ",
".+@##                            ",
".+@##                            ",
".+@##                            ",
".+@##                            ",
".+@##                            ",
".+@##                            ",
".+@##                            ",
".+@##                            ",
".+@##                            ",
".+@##                            ",
".+@##                            ",
".+@##                            ",
".+@##                            ",
".+@##                            ",
".+@##                            ",
".+@##                            ",
".+@##                            ",
".+@##                            ",
".+@##                            ",
".+@##                            ",
".+@##                            ",
".+@##                            ",
".+@##                            ",
".+@##                            ",
".+@##                            ",
".+@##                            ",
".+@##############################",
".+@##############################",
".+@@@@@@@@@@@@@@@@@@@@@@@@@@@@@@@",
".++++++++++++++++++++++++++++++++",
"................................."};
