/* XPM */
static char *Bottum_Right___png[] = {
/* columns rows colors chars-per-pixel */
"16 16 63 1",
"  c #494949",
". c #535353",
"X c gray34",
"o c #585858",
"O c gray36",
"+ c #5F5F5F",
"@ c #6D6D6D",
"# c #717171",
"$ c #777777",
"% c #7E7E7E",
"& c #808080",
"* c #838383",
"= c #848484",
"- c #898989",
"; c gray54",
": c gray55",
"> c #8D8D8D",
", c #8E8E8E",
"< c gray56",
"1 c #909090",
"2 c #929292",
"3 c #939393",
"4 c #959595",
"5 c #989898",
"6 c gray60",
"7 c #9B9B9B",
"8 c gray61",
"9 c #CACACA",
"0 c gray83",
"q c #D5D5D5",
"w c gray84",
"e c #D7D7D7",
"r c #D8D8D8",
"t c #DADADA",
"y c gray86",
"u c gainsboro",
"i c #DDDDDD",
"p c #DFDFDF",
"a c gray88",
"s c #E1E1E1",
"d c #E2E2E2",
"f c gray89",
"g c #E4E4E4",
"h c gray90",
"j c #E9E9E9",
"k c #EAEAEA",
"l c #ECECEC",
"z c gray93",
"x c #F1F1F1",
"c c gray95",
"v c #F3F3F3",
"b c #F4F4F4",
"n c gray96",
"m c gray97",
"M c #F8F8F8",
"N c #F9F9F9",
"B c gray98",
"V c #FBFBFB",
"C c gray99",
"Z c #FDFDFD",
"A c #FEFEFE",
"S c gray100",
"D c None",
/* pixels */
"DDDDDDDDDDDDDSm,",
"DDDDDDDDDDDDDSV,",
"DDDDDDDDDDDDqcS,",
"DDDDDDDDDDDi4jS,",
"DDDDDDDDDDr3rSZ,",
"DDDDDDDDDs1gZSS,",
"DDDDDDDDa&kVpSS,",
"DDDDDDDe:jSe*gb,",
"DDDDDDr3ySt;jSS,",
"DDDDD04hSe>znSB,",
"DDDDw5uZq,aZdbS<",
"DDD97tSw8uVu:lN1",
"DDq2jNr-pBv&jAB2",
"ZBSfnSNlCSxjSSV3",
"SMAZSASVCZSSSAC>",
" .oXOO+@#$%=;<26"
};
