/* XPM */
static char *button_inactive_png[] = {
/* columns rows colors chars-per-pixel */
"19 23 89 1",
"  c #5A6D8B",
". c #5A718B",
"X c #5A6D94",
"o c #5A7194",
"O c #7B7983",
"+ c #7B7D83",
"@ c #627194",
"# c #837D8B",
"$ c #83818B",
"% c #83858B",
"& c #8B8994",
"* c #8B8D94",
"= c #8B9194",
"- c #8B919C",
"; c #9499A4",
": c #949DA4",
"> c #9C9DA4",
", c #9C9DAC",
"< c #9CA1AC",
"1 c #9CA5AC",
"2 c #A4A5B4",
"3 c #A4AAB4",
"4 c #ACAEB4",
"5 c #A4AEBD",
"6 c #ACAEBD",
"7 c #ACB2BD",
"8 c #ACB6BD",
"9 c #B4B6BD",
"0 c #ACB6C5",
"q c #B4B6C5",
"w c #B4BAC5",
"e c #B4BEC5",
"r c #BDBAC5",
"t c #BDBEC5",
"y c #B4BACD",
"u c #B4BECD",
"i c #BDBACD",
"p c #BDBECD",
"a c #BDC2CD",
"s c #BDC6CD",
"d c #BDC2D5",
"f c #BDC6D5",
"g c #C5C2CD",
"h c #C5C6CD",
"j c #C5C2D5",
"k c #C5C6D5",
"l c #C5CAD5",
"z c #C5CED5",
"x c #CDCAD5",
"c c #CDCED5",
"v c #C5CADE",
"b c #C5CEDE",
"n c #CDCEDE",
"m c #CDD2D5",
"M c #CDD6D5",
"N c #CDD2DE",
"B c #CDD6DE",
"V c #D5D2DE",
"C c #D5D6DE",
"Z c #D5DADE",
"A c #CDD2E6",
"S c #CDD6E6",
"D c #D5D6E6",
"F c #D5DAE6",
"G c #D5DEE6",
"H c #DEDEE6",
"J c #D5D6EE",
"K c #D5DAEE",
"L c #D5DEEE",
"P c #DEDEEE",
"I c #DEE2E6",
"U c #DEE2EE",
"Y c #DEE6EE",
"T c #D5E2F6",
"R c #DEE2F6",
"E c #DEE6F6",
"W c #D5E2FF",
"Q c #D5E6FF",
"! c #DEE2FF",
"~ c #DEE6FF",
"^ c #E6E6EE",
"/ c #E6EAEE",
"( c #E6EEEE",
") c #E6E6F6",
"_ c #E6EAF6",
"` c #EEEEF6",
"' c #E6E6FF",
"] c #EEF2F6",
"[ c #EEF2FF",
/* pixels */
"@o@X@o@ @ @.@o@.@@@",
"W~WQQ~Q~W~Q~Q~W~W~W",
"ETER~R!R!R!R!R!R!R!",
"SFSFSKSDSFDKSFDKSKJ",
"DADNDlp6,-,5anDlDnA",
"AJFDly7aBPch7qlUFDS",
"RE'L6wnP___Yc4qLPUR",
"NDbp3pnFFHFDFw3pNFF",
"AAk3pancVCCzlsp2nln",
"NAa2pnBCcNMChNs<nNS",
"PKnwNmCCIIHCHZx3NCU",
"bna0cNCHGIIUZCztslN",
"nlp5NFUH^^^GHIc8rkn",
"lvu7kFY_Y/(]YHs9enn",
"FSnalC)_`__U[BaelNK",
"llpw<tF_Y^Y_Bw7pabn",
"vkfeq36tP^Faq14eapk",
"llss773<;>:147wllll",
"DBDNNlaq74qwpsnnANA",
"fkskaaupeewtwlspfld",
"jpkajpkqipiajikpqpj",
"lktrrpwntptgpgwankt",
"$+$*&O%$+=*O%+%$%O#"
};
