/* XPM */
static char *close_active_png[] = {
/* columns rows colors chars-per-pixel */
"19 23 196 2",
"   c black",
".  c #252525",
"X  c gray16",
"o  c #55110E",
"O  c #4A0F11",
"+  c #4F1211",
"@  c #541414",
"#  c #6D1E24",
"$  c #5C2427",
"%  c #5C252B",
"&  c #5B2A2D",
"*  c #482F32",
"=  c #682721",
"-  c #75242B",
";  c #71312F",
":  c #622930",
">  c #7C3B33",
",  c #593F42",
"<  c #5C4343",
"1  c #5E4944",
"2  c gray33",
"3  c #595959",
"4  c #775249",
"5  c #6E5D56",
"6  c #785156",
"7  c #775A52",
"8  c #7E5D56",
"9  c #71625B",
"0  c #7C6D72",
"q  c #727272",
"w  c #797979",
"e  c #9D2F38",
"r  c #8C3136",
"t  c #8E3338",
"y  c #A82F36",
"u  c #A0353D",
"i  c #B63436",
"p  c #B1383D",
"a  c #BE3C3E",
"s  c #98403C",
"d  c #A23D41",
"f  c #B13A40",
"g  c #884F46",
"h  c #9B4840",
"j  c #89524B",
"k  c #974A52",
"l  c #8C5753",
"z  c #865D56",
"x  c #8F5851",
"c  c #835258",
"v  c #9E5358",
"b  c #A94748",
"n  c #B44A4A",
"m  c #B4514D",
"M  c #B85250",
"N  c #91665F",
"B  c #976D61",
"V  c #857274",
"C  c #86777E",
"Z  c #A3786F",
"A  c #B8756C",
"S  c #B7796E",
"D  c #C14246",
"F  c #C94745",
"G  c #C04941",
"H  c #C8584C",
"J  c #D5514F",
"K  c #C74F51",
"L  c #C45754",
"P  c #C45B54",
"I  c #C95850",
"U  c #C75B59",
"Y  c #DE5452",
"T  c #DD5957",
"R  c #E05654",
"E  c #E8615B",
"W  c #E96B5F",
"Q  c #C0696F",
"!  c #C77067",
"~  c #C67176",
"^  c #D07B74",
"/  c #E46761",
"(  c #F76A63",
")  c #F96C65",
"_  c #E57567",
"`  c #EC7567",
"'  c #E1746D",
"]  c #FA7667",
"[  c #FD746A",
"{  c #FD7E6D",
"}  c #E47772",
"|  c #F17470",
" . c #FF7A71",
".. c #8D827E",
"X. c #95827B",
"o. c #AE847F",
"O. c #FE8572",
"+. c #FB8875",
"@. c #FF857C",
"#. c #FF887B",
"$. c #FF937D",
"%. c #868686",
"&. c #8B8B8B",
"*. c #958284",
"=. c #9A8583",
"-. c #928C85",
";. c #988E8D",
":. c #9F9F9F",
">. c #AE8684",
",. c #A6868B",
"<. c #A6898B",
"1. c #AC8F91",
"2. c #AD9895",
"3. c #B39C94",
"4. c gray64",
"5. c #AAA9A4",
"6. c #B2AFAA",
"7. c #B6B5B3",
"8. c #B8B5B0",
"9. c #B7B8B2",
"0. c #BAB3BA",
"q. c #BBBDB8",
"w. c #C09491",
"e. c #FF8E84",
"r. c #FF9785",
"t. c #FF9488",
"y. c #E09693",
"u. c #ED9498",
"i. c #E39998",
"p. c #E99B99",
"a. c #F89C91",
"s. c #FFA18C",
"d. c #EAA79E",
"f. c #EAA89A",
"g. c #FFA596",
"h. c #FFA894",
"j. c #FFAA99",
"k. c #FFB09E",
"l. c #CEAFAC",
"z. c #CCB1A6",
"x. c #C9B0AC",
"c. c #C3BAB3",
"v. c #D4BEB3",
"b. c #DCBEBC",
"n. c #EFA1A1",
"m. c #FFADA0",
"M. c #FFBBAC",
"N. c #DCC1B8",
"B. c #FFC1B6",
"V. c #FFC3BA",
"C. c #C1B7C0",
"Z. c #C4C3C3",
"A. c #CAC5C1",
"S. c #DFCAC7",
"D. c #D7CFCD",
"F. c #CDD1CB",
"G. c #D0D1CC",
"H. c #CFD8D5",
"J. c #D2D3D0",
"K. c #DDDAD3",
"L. c #DBDBDB",
"P. c #E4CDC7",
"I. c #E0CECC",
"U. c #E3D2D0",
"Y. c #E9DBD0",
"T. c #E2DDDD",
"R. c #DCE0DC",
"E. c #E5E4DE",
"W. c #E9E5DA",
"Q. c #E3DEE2",
"!. c #EADEE0",
"~. c #DDE0E5",
"^. c #DEE6E8",
"/. c #E5E4E4",
"(. c #EAE3E4",
"). c #E4EAE5",
"_. c #EEEDE4",
"`. c #E6E5EA",
"'. c #ECE7EE",
"]. c #E4E9EA",
"[. c #EDEDED",
"{. c #FDE3E3",
"}. c #F1E5E9",
"|. c #F6ECED",
" X c #FFE9E9",
".X c #EAF1ED",
"XX c #F4F0E7",
"oX c #F2F2ED",
"OX c #E9EDF0",
"+X c #E6F0F1",
"@X c #EBF1F5",
"#X c #EFFAF9",
"$X c #F4F5F4",
"%X c #FDFCF5",
"&X c #F6FFFE",
"*X c #FDFDFD",
/* pixels */
"w w w w w w w w w w w w w w w w q w w ",
"*X*X*X$X*X*X*X*X*X*X*X*X*X*X*X*X*X*X*X",
"*X*X*X*X*X*X*X*X*X*X$X*X*X$X*X*X*X*X*X",
"*X*X*X*X*X*X*X*X*X*X*X*X*X$X$X*X*X*X$X",
"[.*X'.oX*X[.4.2 X   . 3 4.$X*X*X$X$X[.",
"*X$X*X*XJ.q 2 %.Z.L.C.&.3 q c.*X*X*X*X",
"*X*X*X|.V , 1.{.{. X X X,.* *.*X*X*X*X",
"$X*X*X,.: k ~ p.i.i.n.u.A v % =.*X*X$X",
"OX*XT.c - u p H U M U K p u # 6 (.&X[.",
"$X%XI.$ t y i n H U H F a f t & D.*X$X",
"*X%XP.o b D Y W ` _ ` E Y D d O S.*X*X",
"[.|.b.o m J ( ] O.+.+.[ ) T n @ b._.[.",
").W.z.= m /  .{ $.s.r.#.@.| M ; l.W.`.",
"|._.v.x h ' t.r.h.k.j.t.e.} s l x.oX$X",
"%X%XY.o.> ! g.h.k.B.M.j.a.^ > >.U.%X*X",
"$XoXK.3.z g S f.B.B.V.n.S j z 2.D.$XOX",
"/.$XE.q.X.8 z N Z w.>.B 4 7 =.A.$X#X'.",
"/..X.XL.8...9 1 < < , < 5 -.9.H.^.[./.",
"$X*X*X*X#XJ.5.X...0 C ;.6.F.).#X&X*X$X",
"'.'.].)..X).F.q.7.0.C.A.G.L.^.+X+X@X].",
"L.}./.R._..X).R.L./.Q.T./.[.[.].~.`.L.",
"/.'.!.E.E.).).E./.'.Q.Q.T./././.`./.R.",
"w w w w w w w w w w w w w w w w w w w "
};
