/* XPM */
static char *close_highlight_png[] = {
/* columns rows colors chars-per-pixel */
"19 23 201 2",
"   c black",
".  c #252525",
"X  c gray16",
"o  c #5F0003",
"O  c #55110E",
"+  c #4A0F11",
"@  c #4F1211",
"#  c #541414",
"$  c #640000",
"%  c #70080B",
"&  c #7C100D",
"*  c #741211",
"=  c #4A2024",
"-  c #5C2427",
";  c #5B2A2D",
":  c #482430",
">  c #682721",
",  c #742C2F",
"<  c #71312F",
"1  c #6C2F37",
"2  c #69373A",
"3  c #613F3D",
"4  c #723434",
"5  c #703C3E",
"6  c #70403C",
"7  c #6F3A40",
"8  c #5C4344",
"9  c #5E4A45",
"0  c #5C4853",
"q  c gray33",
"w  c #5C505C",
"e  c #595959",
"r  c #604348",
"t  c #6E464B",
"y  c #6E5D56",
"u  c #64535B",
"i  c #635D5F",
"p  c #785156",
"a  c #71625B",
"s  c #696170",
"d  c #7C6D72",
"f  c #727272",
"g  c #797979",
"h  c #8B0C06",
"j  c #811513",
"k  c #801E15",
"l  c #921614",
"z  c #991813",
"x  c #8F2015",
"c  c #832219",
"v  c #8D2218",
"b  c #9D2610",
"n  c #99331D",
"m  c #AC3016",
"M  c #912F2E",
"N  c #903425",
"B  c #9C3524",
"V  c #9E302F",
"C  c #953C2A",
"Z  c #993E2C",
"A  c #8A3437",
"S  c #983637",
"D  c #95363A",
"F  c #9B3739",
"G  c #A93420",
"H  c #AC382B",
"J  c #AF3D3C",
"K  c #B13938",
"L  c #AD523F",
"P  c #933C42",
"I  c #854545",
"U  c #984541",
"Y  c #964F4D",
"T  c #8C5753",
"R  c #8F5851",
"E  c #835258",
"W  c #995457",
"Q  c #AE4846",
"!  c #B24540",
"~  c #B7514C",
"^  c #A3585C",
"/  c #B25754",
"(  c #B55860",
")  c #976065",
"_  c #966A67",
"`  c #86777E",
"'  c #B76A60",
"]  c #A66D73",
"[  c #A97778",
"{  c #BB7076",
"}  c #BE7E74",
"|  c #C84640",
" . c #C3564F",
".. c #C15B4C",
"X. c #DB5246",
"o. c #DD5B45",
"O. c #D9564E",
"+. c #CB665E",
"@. c #C76A59",
"#. c #CF6A5E",
"$. c #E3614B",
"%. c #E06053",
"&. c #E46459",
"*. c #E36B5C",
"=. c #F86D5A",
"-. c #C36A64",
";. c #DB6F63",
":. c #DC776D",
">. c #E77D6D",
",. c #F57667",
"<. c #E07D78",
"1. c #8C827E",
"2. c #AF877F",
"3. c #E98472",
"4. c #868686",
"5. c #8B8B8B",
"6. c #9D8486",
"7. c #928C85",
"8. c #988E8D",
"9. c #9F9F9F",
"0. c #AE8684",
"q. c #A6868B",
"w. c #A98A88",
"e. c #AD9895",
"r. c #B39C94",
"t. c gray64",
"y. c #AAA9A4",
"u. c #B2AFAA",
"i. c #B6B5B3",
"p. c #B8B5B0",
"a. c #B7B8B2",
"s. c #BAB3BA",
"d. c #BBBDB8",
"f. c #D08280",
"g. c #C48D92",
"h. c #E59B92",
"j. c #EC9C9D",
"k. c #FFA69A",
"l. c #FFA99E",
"z. c #CEAFAC",
"x. c #CCB1A6",
"c. c #C9B0AC",
"v. c #C3BAB3",
"b. c #D4BEB3",
"n. c #DCBEBC",
"m. c #EBA2AB",
"M. c #FFADA7",
"N. c #F1A8AF",
"B. c #FFB8B1",
"V. c #FFBEBD",
"C. c #DCC1B8",
"Z. c #FFC0BC",
"A. c #C1B7C0",
"S. c #C4C3C3",
"D. c #CAC5C1",
"F. c #DFCAC7",
"G. c #D7CFCD",
"H. c #CCD1CB",
"J. c #D0D1CC",
"K. c #CFD8D5",
"L. c #D2D4D0",
"P. c #DDDAD3",
"I. c #DBDBDB",
"U. c #E4CDC7",
"Y. c #E0CECC",
"T. c #EECDCD",
"R. c #FFC1C3",
"E. c #E3D2D0",
"W. c #E9DBD0",
"Q. c #E2DDDD",
"!. c #FFDEDF",
"~. c #DCE0DC",
"^. c #E5E4DE",
"/. c #E9E5DA",
"(. c #E3DEE2",
"). c #EADEE0",
"_. c #DDE0E5",
"`. c #DEE6E8",
"'. c #E5E4E4",
"]. c #EAE3E4",
"[. c #E3EAE5",
"{. c #EEEDE4",
"}. c #E6E5EA",
"|. c #ECE7EE",
" X c #E4E9EA",
".X c #EDEDED",
"XX c #F1E5E9",
"oX c #F6ECED",
"OX c #FFEBED",
"+X c #EAF1ED",
"@X c #F4F0E7",
"#X c #F2F2ED",
"$X c #E9EDF0",
"%X c #FFEFF0",
"&X c #E6F0F1",
"*X c #EBF1F5",
"=X c #EEFAFA",
"-X c #F4F5F4",
";X c #FDFCF5",
":X c #F5FFFF",
">X c #FDFDFD",
/* pixels */
"g g g g g g g g g g g g g g g g g g g ",
">X>X>X-X>X>X>X>X>X>X>X>X>X>X>X>X>X>X>X",
">X>X>X>X>X>X>X>X>X>X-X;X>X-X>X>X;X>X>X",
";X>X>X>X>X>X>X>X>X>X>X>X>X>X-X;X>X>X-X",
"$X>X|.#X>X.Xt.q X   . e 9.-X>X;X-X-X.X",
";X-X>X>XL.f q 4.S.I.S.5.e f A.>X>X>X;X",
">X>X>XoXs u 6.T.%X!.%XT.w.r i >X>X>X>X",
"-X>X>Xq.: 7 W { N.m.N.{ ^ 4 = 6.>X>X-X",
".X>XQ.E 2 A % $ D ( D $ % D , p ].:X.X",
"-X>XY.- P J z h & M * k l K F ; G.>X-X",
">X;XU.@ F | X.X.x c & ..X.| S + F.>X>X",
".X@Xn.O Q %.=.o.B C C ~ ,.&.L # n.{..X",
"'./.x.> / *.$.m n Q Z C &.*.~ , z./.}.",
".X{.b.R Y #.G b 3.k.:.l H ;.U T c.#X#X",
">X;XW.2.5 ' @.3.k.B.M.<.-.-.4 0.E.>X>X",
"-X#XE.r.8 6 } h.Z.Z.R.j.<.I t e.G.-X$X",
"'.-X^.v.w 8 3 _ [ g.] ) 2 t 0 D.-X=X}.",
"'.+X+XI.p.1.y 9 8 8 8 8 a 7.a.K.`..X'.",
"-X>X>X>X=XJ.y.7.1.d ` 8.u.H.[.=X:X>X-X",
"|.|.[. X+X[.H.d.s.s.v.S.J.~.`.&X*X*X X",
"I..X'.~.[.+X[.^.I.(.(.(.'..X.X X_.}.I.",
"(.XX).Q.^.[.[.^.'..X(.(.Q.].'.}.(.'.^.",
"g g g g g g g g g g g g g g g g g g g "
};
