/* XPM */
static char *close_inactive_highlight_png[] = {
/* columns rows colors chars-per-pixel */
"19 23 231 2",
"   c black",
".  c #252525",
"X  c gray16",
"o  c #5F0003",
"O  c #55110E",
"+  c #4A0F11",
"@  c #4F1211",
"#  c #541414",
"$  c #640000",
"%  c #70090A",
"&  c #71080C",
"*  c #7C100D",
"=  c #741211",
"-  c #4A2024",
";  c #5C2427",
":  c #5B2A2D",
">  c #482430",
",  c #682721",
"<  c #742C2F",
"1  c #71312F",
"2  c #6C2F37",
"3  c #69373A",
"4  c #613F3D",
"5  c #713131",
"6  c #743637",
"7  c #703C3E",
"8  c #70403C",
"9  c #6F3A40",
"0  c #5A4043",
"q  c #5D4541",
"w  c #5D4346",
"e  c #5A4447",
"r  c #5D4845",
"t  c #5F4B44",
"y  c #5F4A47",
"u  c gray32",
"i  c #565656",
"p  c #585858",
"a  c #5B5B5B",
"s  c #604348",
"d  c #6D444A",
"f  c #6E474C",
"g  c #6E5D56",
"h  c #64535B",
"j  c #635D5F",
"k  c #785156",
"l  c #71625B",
"z  c #696170",
"x  c #7C6D72",
"c  c gray44",
"v  c gray46",
"b  c #8B0C06",
"n  c #811513",
"m  c #801E15",
"M  c #921614",
"N  c #991813",
"B  c #8F2015",
"V  c #832219",
"C  c #8D2218",
"Z  c #9D2610",
"A  c #99331D",
"S  c #AC3016",
"D  c #912F2E",
"F  c #903425",
"G  c #9C3522",
"H  c #9B3526",
"J  c #9E302F",
"K  c #953C2A",
"L  c #993E2C",
"P  c #8A3437",
"I  c #983637",
"U  c #973739",
"Y  c #96363A",
"T  c #91343C",
"R  c #9B3739",
"E  c #A93420",
"W  c #AC382B",
"Q  c #AF3D3C",
"!  c #B13938",
"~  c #AD523F",
"^  c #933C42",
"/  c #854545",
"(  c #984541",
")  c #964F4D",
"_  c #8C5753",
"`  c #8F5851",
"'  c #835258",
"]  c #995457",
"[  c #AE4846",
"{  c #B24540",
"}  c #B7514C",
"|  c #A3585C",
" . c #B25754",
".. c #B55860",
"X. c #976065",
"o. c #966A67",
"O. c #86777E",
"+. c #B76A60",
"@. c #A66D73",
"#. c #A97778",
"$. c #B97077",
"%. c #BC7175",
"&. c #BE7E74",
"*. c #C94540",
"=. c #C84741",
"-. c #C3564F",
";. c #C15B4C",
":. c #D85246",
">. c #DE5245",
",. c #DD5B45",
"<. c #D9564E",
"1. c #CB665E",
"2. c #C76A59",
"3. c #CF6A5E",
"4. c #E3614B",
"5. c #E06053",
"6. c #E46459",
"7. c #E36A59",
"8. c #E16B5D",
"9. c #E56B5E",
"0. c #F86D5A",
"q. c #C36A64",
"w. c #DB6F63",
"e. c #DC776D",
"r. c #E77D6D",
"t. c #F57667",
"y. c #E07D78",
"u. c #8B817F",
"i. c #8E837D",
"p. c #AF877F",
"a. c #E98472",
"s. c #5A6D8B",
"d. c #5A718B",
"f. c #5A6D94",
"g. c #5A7194",
"h. c #7B7983",
"j. c #7B7D83",
"k. c #627194",
"l. c #837D8B",
"z. c #868686",
"x. c #83818B",
"c. c #83858B",
"v. c #8B8B8B",
"b. c #9C8387",
"n. c #9D8585",
"m. c #938C84",
"M. c #918C86",
"N. c #988E8D",
"B. c #8B8994",
"V. c #8B8D94",
"C. c #8B9194",
"Z. c #9F9F9F",
"A. c #AE8684",
"S. c #A6868B",
"D. c #A98A88",
"F. c #AD9895",
"G. c #B39C94",
"H. c gray64",
"J. c #AAA9A4",
"K. c #B2AFAA",
"L. c #ACAEB4",
"P. c #B8B5B0",
"I. c #B7B8B2",
"U. c #D08280",
"Y. c #C48D92",
"T. c #E59B92",
"R. c #EC9C9D",
"E. c #FFA69A",
"W. c #FFA99E",
"Q. c #C3BAB3",
"!. c #E9A2AA",
"~. c #ECA3AC",
"^. c #FFADA7",
"/. c #F1A8AF",
"(. c #FFB8B1",
"). c #FFBEBD",
"_. c #FFC0BC",
"`. c #B4B6C5",
"'. c #B4BAC5",
"]. c #B4BEC5",
"[. c #BDBAC5",
"{. c #BDBEC5",
"}. c #B4BECD",
"|. c #BDBACD",
" X c #BDBECD",
".X c #BDC2CD",
"XX c #BDC6CD",
"oX c #BDC2D5",
"OX c #BDC6D5",
"+X c #C1C1C1",
"@X c #C3C3C3",
"#X c #C5C5C5",
"$X c #CAC5C1",
"%X c #C5C2CD",
"&X c #CCD1CA",
"*X c #C5C2D5",
"=X c #C5C6D5",
"-X c #C5CAD5",
";X c #C5CADE",
":X c #C5CEDE",
">X c #CDCEDE",
",X c #CFD8D5",
"<X c #CDD2DE",
"1X c #CDD6DE",
"2X c gray82",
"3X c #D3D5D0",
"4X c #D5D6DE",
"5X c gray86",
"6X c #EFCBCD",
"7X c #EDCFCD",
"8X c #FFC1C3",
"9X c #FFDEDF",
"0X c #CDD2E6",
"qX c #CDD6E6",
"wX c #D5D6E6",
"eX c #D5DAE6",
"rX c #D5D6EE",
"tX c #D5DAEE",
"yX c #D5DEEE",
"uX c #DEDEEE",
"iX c #DEE2EE",
"pX c #D5E2F6",
"aX c #DEE2F6",
"sX c #DEE6F6",
"dX c #D5E2FF",
"fX c #D5E6FF",
"gX c #DEE2FF",
"hX c #DEE6FF",
"jX c #FFEBED",
"kX c #E6E6FF",
"lX c #FFEFF0",
/* pixels */
"k.g.k.f.k.g.k.s.k.s.k.d.k.g.k.d.k.k.k.",
"dXhXdXfXfXhXfXhXdXhXfXhXfXhXdXhXdXhXdX",
"sXpXsXaXhXaXgXaXgXaXgXaXgXaXgXaXgXaXgX",
"qXeXqXeXqXtXqXwXqXeXwXtXqXeXwXtXqXtXrX",
"wX0XwX<XwX-XH.i X   . p Z.>XwX-XwX>X0X",
"0XrXeXwX2Xv u z.#X5X+Xv.a c @XiXeXwXqX",
"aXsXkXyXz h n.7XlX9XjX6XD.y j yXuXiXaX",
"<XwX:XS.> 9 ] %./.!.~.$.| 6 - b.<XeXeX",
"0X0X=X' 2 P % $ Y ..T o & U < k >X-X>X",
"<X0X.X; ^ Q N b * D = n M ! I : >X<XqX",
"uXtX>X@ R =.>.:.B V m -.<.*.J + <X4XiX",
":X>X.XO [ 5.0.,.G K F ;.t.6.{ # XX-X<X",
">X-X X,  .8.4.S A ~ L H 7.9.} 1 [.=X>X",
"-X;X}.` ) 3.E Z r.E.e.C W w.( _ ].>X>X",
"eXqX>Xp.7 +.2.a.W.(.^.y.1.q.5 A.-X<XtX",
"-X-X XG.s 8 &.T._.).8XR.U./ d F..X:X>X",
";X=XOXQ.L.e 4 o.#.Y.@.X.3 f L.$X.X X=X",
"-X-XXXXXP.i.g t q w 0 r l m.I.,X-X-X-X",
"wX1XwX<X<X3XJ.M.u.x O.N.K.&X>X>X0X<X0X",
"OX=XXX=X.X.X}. X].].'.{.'.-XXX XOX-XoX",
"*X X=X.X*X X=X`.|. X|..X*X|.=X X`. X*X",
"-X=X{.[.[. X'.>X{. X{.%X X%X'..X>X=X{.",
"x.j.x.V.B.h.c.x.j.C.V.h.c.j.c.x.c.h.l."
};
