/* XPM */
static char *iconify_active_png[] = {
/* columns rows colors chars-per-pixel */
"19 23 216 2",
"   c #2B1518",
".  c #3C3616",
"X  c #311E20",
"o  c #3D272A",
"O  c #7C3C13",
"+  c #7F3D1A",
"@  c #763726",
"#  c #7D3A34",
"$  c #7E400D",
"%  c #554B2C",
"&  c #5A5535",
"*  c #7F7C37",
"=  c #5E5050",
"-  c #6F4F42",
";  c #734B43",
":  c #625253",
">  c #6F654C",
",  c #6E684E",
"<  c #756B47",
"1  c #7C684D",
"2  c #767040",
"3  c #785D62",
"4  c #7A6467",
"5  c #786C6C",
"6  c #797979",
"7  c #864D16",
"8  c #804219",
"9  c #964821",
"0  c #86522B",
"q  c #8F5D28",
"w  c #A24C31",
"e  c #857D3F",
"r  c #8C7C3E",
"t  c #937537",
"y  c #BC6E23",
"u  c #C67232",
"i  c #CB7C37",
"p  c #CD7E3B",
"a  c #945550",
"s  c #9B5B52",
"d  c #867547",
"f  c #997A43",
"g  c #97744E",
"h  c #9A784B",
"j  c #AA6B40",
"k  c #B77552",
"l  c #8F767A",
"z  c #847A7B",
"x  c #897E78",
"c  c #96797E",
"v  c #9A7C7A",
"b  c #8E8037",
"n  c #D88C34",
"m  c #DC8E3B",
"M  c #DC9335",
"N  c #D9923A",
"B  c #DF9D3C",
"V  c #E3942B",
"C  c #E29E2B",
"Z  c #E29432",
"A  c #E6A024",
"S  c #E7A32A",
"D  c #F1A52D",
"F  c #EAA837",
"G  c #E9AD3D",
"H  c #FDBD34",
"J  c #FAB93B",
"K  c #929141",
"L  c #9F994D",
"P  c #8F886C",
"I  c #8D827E",
"U  c #928A7D",
"Y  c #A38C6E",
"T  c #B0887C",
"R  c #C79B54",
"E  c #C89C51",
"W  c #E79D46",
"Q  c #E6A547",
"!  c #E8AE40",
"~  c #E8A04C",
"^  c #EDAE4F",
"/  c #F8AF40",
"(  c #EEB54C",
")  c #E8AA55",
"_  c #E7AD59",
"`  c #EAAC5F",
"'  c #DB9F61",
"]  c #DFA36F",
"[  c #F2B864",
"{  c #F8BE7E",
"}  c #FEC245",
"|  c #FDC44D",
" . c #F7C355",
".. c #FEC752",
"X. c #FFCC50",
"o. c #FFC55C",
"O. c #FFC95C",
"+. c #FFD059",
"@. c #CCC462",
"#. c #DFC66C",
"$. c #C6C471",
"%. c #D6CB72",
"&. c #E5C76F",
"*. c #FFD361",
"=. c #FFDE65",
"-. c #FED56D",
";. c #FFDB6C",
":. c #FFD571",
">. c #FFE36C",
",. c #FFEF76",
"<. c #FFE478",
"1. c #FFEC7F",
"2. c #FFF175",
"3. c #FDF47D",
"4. c #FFF87D",
"5. c #8C8082",
"6. c #938B80",
"7. c #978F8D",
"8. c #9B908C",
"9. c #A78480",
"0. c #A08C8E",
"q. c #BA9986",
"w. c #BE8C95",
"e. c #A79A94",
"r. c #A99F9E",
"t. c #B1A58F",
"y. c #B29EA0",
"u. c #AFA9A9",
"i. c #B9B0A9",
"p. c #B5ABB3",
"a. c #B9AEBC",
"s. c #BCB4B2",
"d. c #B7B0B8",
"f. c #BBB4BC",
"g. c #C48F95",
"h. c #C1AFA3",
"j. c #CAB7A8",
"k. c #D4B0A0",
"l. c #C0B9B1",
"z. c #C2B9BA",
"x. c #EABFAE",
"c. c #DCDB88",
"v. c #F8C087",
"b. c #FEC888",
"n. c #FAC792",
"m. c #FFCD96",
"M. c #E1E08D",
"N. c #FFED82",
"B. c #FFF780",
"V. c #FFFB84",
"C. c #FDFD89",
"Z. c #FFFE94",
"A. c #D6C1AE",
"S. c #D1C4BB",
"D. c #F9CBBC",
"F. c #FED1BA",
"G. c #BCB4C3",
"H. c #C2BAC7",
"J. c #CEC6C4",
"K. c #CEC9C6",
"L. c #DFC2C7",
"P. c #DDC7CA",
"I. c #D7D2CC",
"U. c #CFC9D3",
"Y. c #D4CED2",
"T. c #DEDBD5",
"R. c gray86",
"E. c #E4D1C2",
"W. c #E5D9C9",
"Q. c #E2CED0",
"!. c #E9CED3",
"~. c #E1DDD4",
"^. c #EFDDD1",
"/. c #E0DEDF",
"(. c #FFD2D9",
"). c #DFE4DE",
"_. c #FFE4D1",
"`. c #F0E3DB",
"'. c #FFEBDE",
"]. c #DBD7E5",
"[. c #DEDAE3",
"{. c #E1DDE4",
"}. c #E1DFEB",
"|. c #F1DEE0",
" X c #DDE1E2",
".X c #DDE4EC",
"XX c #E4E4E5",
"oX c #E5EAE4",
"OX c #E9EBE5",
"+X c #E4E4EA",
"@X c #EAE6ED",
"#X c #E5EAEB",
"$X c #EDECED",
"%X c #F7E5E1",
"&X c #FFE2E7",
"*X c #FCE9E2",
"=X c #F2ECEA",
"-X c #FDEAEC",
";X c #EDF0E5",
":X c #EEF4EF",
">X c #FFF3E0",
",X c #F5F3EC",
"<X c #FDF3EE",
"1X c #FFFBED",
"2X c #E7EFF2",
"3X c #F0EBF2",
"4X c #F0ECFB",
"5X c #EDF0F5",
"6X c #F5F5F4",
"7X c #FEF3F3",
"8X c #F7F9F6",
"9X c #FDFCF6",
"0X c #F0F3FB",
"qX c #FDF6FD",
"wX c #F7FEFF",
"eX c #FDFDFC",
/* pixels */
"6 6 6 6 6 6 6 6 6 6 6 6 6 6 6 6 6 6 6 ",
"eXeXeX5XeXeXeXeXeX9X9X=XeXeXeX8XeXeXeX",
"eXeXeXeXwXeX9X7XeXeXeXqXeXeXeX9XeXeXeX",
"8XeXeXeX,X9X9X9X7X7XqX-X7XeXeXeX8X9X8X",
"5X8X6X6X9X=Xr.= o   o 4 y.^.qX7X,X7X$X",
"8XeXeXqXJ.5 = 0.P.!.L.c 3 l Q.qXeX7X8X",
"eXeXqX7Xv - q._.>X'.*X'.T ; 9.&XqXqXeX",
"8XeXeXg.# j ] { b.n.n.v.] k @ g.qXqX8X",
"3X9X`.a w p M B ^ [ _ Q N p 9 s (.7X=X",
"6XeX^.O u Z S C G ( G S A C y + D.1X6X",
"eXeXE.O m C J } |  ...H J D n $ F.1XeX",
":X3Xj.7 W F | *.;.:.-.X.} / ) $ x.*X$X",
"XX+Xh.q ) O.+.;.N.N.<.=...o.` 0 k.`.OX",
"3X6XS.h E -.>.2.B.V.B.2.=.-.R g A.,X:X",
"eXeXT.Y f #.1.C.B.3.C.V.3.&.t Y W.9XeX",
"5X#X[.e.1 r %.Z.Z.Z.V.Z.@.r d t.T.,X5X",
"OX2X.Xf.I < e L $.M.c.K * 2 P s.+X6XoX",
"XX#X.X[.f.6.> % % % . & , U s.].4X0XXX",
"8XeXwXeXXXS.i.7.I 5.z 7.u.Y.3XqXqXqX6X",
"+X5X5X6XXX).I.f.p.f.G.G.U.{.@X$X$XOX+X",
"R.#X#X).oX;XoX{.[.[.].+X+X@X@X$XOXOXR.",
"XX{. X+XoXoX).).XXoX#XXX+X{.XX{. X XXX",
"6 6 6 6 6 6 6 6 6 6 6 6 6 6 6 6 6 6 6 "
};
