/* XPM */
static char *iconify_highlight_png[] = {
/* columns rows colors chars-per-pixel */
"19 23 211 2",
"   c #2B1518",
".  c #3C3616",
"X  c #311E20",
"o  c #3D272A",
"O  c #7C3C13",
"+  c #7F3D1A",
"@  c #6D3828",
"#  c #7E400D",
"$  c #544629",
"%  c #544B2C",
"&  c #58532D",
"*  c #5A5434",
"=  c #625A29",
"-  c #66632C",
";  c #7C6732",
":  c #5E5050",
">  c #7A4E43",
",  c #7A464A",
"<  c #6C4653",
"1  c #625253",
"2  c #5B604C",
"3  c #6F654C",
"4  c #6E684E",
"5  c #686159",
"6  c #785C62",
"7  c #7A6467",
"8  c #786C6C",
"9  c #797979",
"0  c #975400",
"q  c #955F00",
"w  c #985E00",
"e  c #864D16",
"r  c #804219",
"t  c #A04D00",
"y  c #A45700",
"u  c #A05C00",
"i  c #926400",
"p  c #9F6200",
"a  c #966D04",
"s  c #9E6E08",
"d  c #86522B",
"f  c #88502F",
"g  c #8F5D28",
"h  c #97562E",
"j  c #867036",
"k  c #887A3D",
"l  c #B27036",
"z  c #C0753B",
"x  c #80504C",
"c  c #995D41",
"v  c #945550",
"b  c #9B5B52",
"n  c #8D7A42",
"m  c #97744E",
"M  c #9A784B",
"N  c #A56444",
"B  c #8F767A",
"V  c #847A7B",
"C  c #96797E",
"Z  c #C87C40",
"A  c #DE8F2B",
"S  c #E59C35",
"D  c #E4943D",
"F  c #F19F33",
"G  c #E7A43B",
"H  c #EAA53E",
"J  c #FAAB35",
"K  c #979852",
"L  c #BB954C",
"P  c #B1AB5F",
"I  c #8D827E",
"U  c #928A7D",
"Y  c #A38C6E",
"T  c #CE8840",
"R  c #C7964A",
"E  c #DB9245",
"W  c #DC944B",
"Q  c #CF8A51",
"!  c #E89340",
"~  c #E09E48",
"^  c #DCA048",
"/  c #D9A250",
"(  c #DEAD50",
")  c #C8B25C",
"_  c #E5A740",
"`  c #E2AB44",
"'  c #E1AC4E",
"]  c #EBB048",
"[  c #E5AF55",
"{  c #E4A558",
"}  c #F3B05F",
"|  c #D9B463",
" . c #D1B06B",
".. c #E6A779",
"X. c #FDCE52",
"o. c #FFD25C",
"O. c #C7C169",
"+. c #DAC478",
"@. c #D4D27B",
"#. c #FFCF65",
"$. c #F4D36C",
"%. c #FFD16B",
"&. c #FFDD6E",
"*. c #FCEC63",
"=. c #FFE76A",
"-. c #FFED6D",
";. c #FFED76",
":. c #FDFC7C",
">. c #8C8082",
",. c #938B80",
"<. c #978F8D",
"1. c #9B908C",
"2. c #A08C8E",
"3. c #BE8C95",
"4. c #A79A94",
"5. c #A99F9E",
"6. c #B1A58F",
"7. c #B29EA0",
"8. c #AFA9A9",
"9. c #B9B0A9",
"0. c #B5ABB3",
"q. c #B9AEBC",
"w. c #BCB4B2",
"e. c #B7B0B8",
"r. c #BBB4BC",
"t. c #C48F87",
"y. c #C7958A",
"u. c #C48F95",
"i. c #C1AFA3",
"p. c #CAB7A8",
"a. c #D4B0A0",
"s. c #C0B9B1",
"d. c #C2B9BA",
"f. c #EABFAE",
"g. c #C9D082",
"h. c #EFC885",
"j. c #FDC58A",
"k. c #F9CB8D",
"l. c #FDD190",
"z. c #F5E983",
"x. c #FFEF82",
"c. c #FFFB83",
"v. c #F3F58A",
"b. c #FFF28C",
"n. c #FFFF8B",
"m. c #E3E894",
"M. c #FFFF9B",
"N. c #D6C1AE",
"B. c #D1C4BB",
"V. c #FACDBC",
"C. c #FED1BA",
"Z. c #BCB4C3",
"A. c #C2BAC7",
"S. c #CEC6C4",
"D. c #CEC9C6",
"F. c #DFC2C7",
"G. c #DDC7CA",
"H. c #D7D2CC",
"J. c #CFC9D3",
"K. c #D4CED2",
"L. c #DEDBD5",
"P. c gray86",
"I. c #E4D1C2",
"U. c #E5D9C9",
"Y. c #FFDBC9",
"T. c #E2CED0",
"R. c #E9CED3",
"E. c #E1DDD4",
"W. c #EFDDD1",
"Q. c #E0DEDF",
"!. c #FFD2D9",
"~. c #DFE4DE",
"^. c #FFECD3",
"/. c #F0E3DB",
"(. c #FFF1DC",
"). c #DBD7E5",
"_. c #DEDAE3",
"`. c #E1DDE4",
"'. c #E1DFEB",
"]. c #F1DEE0",
"[. c #DDE1E2",
"{. c #DDE4EC",
"}. c #E4E4E5",
"|. c #E5EAE4",
" X c #E9EBE5",
".X c #E4E4EA",
"XX c #EAE6ED",
"oX c #E4EAEC",
"OX c #EDECED",
"+X c #F7E5E1",
"@X c #FFE2E7",
"#X c #FCE9E2",
"$X c #F2ECEA",
"%X c #FDEAEC",
"&X c #EDF0E5",
"*X c #EEF4EF",
"=X c #F5F3EC",
"-X c #FDF3EE",
";X c #FFFBED",
":X c #E7EFF2",
">X c #F0EBF2",
",X c #F0ECFB",
"<X c #EDF0F5",
"1X c #F5F5F4",
"2X c #FEF3F3",
"3X c #F7F9F6",
"4X c #FDFCF6",
"5X c #F0F3FB",
"6X c #FDF6FD",
"7X c #F7FEFF",
"8X c #FDFDFC",
/* pixels */
"9 9 9 9 9 9 9 9 9 9 9 9 9 9 9 9 9 9 9 ",
"8X8X8X<X8X8X8X8X8X4X4X$X8X8X8X3X8X8X8X",
"8X8X8X8X3X8X8X8X8X8X8X6X8X8X8X4X8X8X8X",
"3X8X8X8X$X4X8X4X2X2X6X%X2X8X8X8X1X4X3X",
"<X3X1X1X4X$X5.: X   o 7 7.W.6X6X1X1X$X",
"3X8X8X6XS.8 1 2.G.!.A.C 6 B T.8X4X2X3X",
"8X8X6X2X< , t.C.^.^.#XY.y.x 6 ].6X6X8X",
"3X8X8Xu.@ N ..j.k.h.j.j.h.h x u.6X6X3X",
"*X8X+Xv h Z E ~ [ ( ' W ~ Q f b !.2X$X",
"1X6XW.O z ! A S ] ` _ H A D l + V.;X1X",
"6X8XI.# W A 0 0 w i w w t F D O C.;X4X",
"OX>Xp.e { G p i i a s p y J } O N.#XOX",
" X.Xi.g R #.X.-.;.x.x.&.X.o./ d a./. X",
"<X1XB.M  .$.=.*.:.n.c.=.o.%.L m N.=XOX",
"8X8XL.Y ; ) c.n.:.:.c.n.b.| j Y U.4X8X",
"<XoX_.4.$ k O.v.M.M.n.z.+.n & 6.~.=X<X",
"}.<X.Xe.5 * - K g.m.@.P = % 2 s..X5X.X",
"}.oX{.{.r.,.3 % % % . * 4 U w._.,X5X.X",
"1X8X7X8X'.D.9.1.I >.V <.8.K.>X6X6X8X1X",
" X<X<X<X~.L.H.d.0.Z.Z.Z.J._.XXXXXX X X",
"P..XoX~. X&X|.Q._._.)..X.X.XXXXX X&XP.",
"[.`.}..XoX X~.~.|.}. X}..X}.}.}.[.[.Q.",
"9 9 9 9 9 9 9 9 9 9 9 9 9 9 9 9 9 9 9 "
};
