/* XPM */
static char *iconify_inactive_highlight_png[] = {
/* columns rows colors chars-per-pixel */
"19 23 235 2",
"   c #2B1518",
".  c #3C3616",
"X  c #311E20",
"o  c #3D272A",
"O  c #7F3F11",
"+  c #783815",
"@  c #7F3D1A",
"#  c #6D3828",
"$  c #7E400D",
"%  c #544629",
"&  c #54492B",
"*  c #564B2B",
"=  c #504B2D",
"-  c #554C2D",
";  c #58532D",
":  c #5A5432",
">  c #5A5535",
",  c #625A29",
"<  c #66632C",
"1  c #7C6732",
"2  c #5E5050",
"3  c #7A4E43",
"4  c #7A464A",
"5  c #6C4653",
"6  c #625253",
"7  c #5B604C",
"8  c #6F654C",
"9  c #6E684E",
"0  c #686159",
"q  c #795A62",
"w  c #785D62",
"e  c #7A6467",
"r  c #786C6C",
"t  c #975400",
"y  c #935F00",
"u  c #975F00",
"i  c #985E00",
"p  c #864D16",
"a  c #804219",
"s  c #A04D00",
"d  c #A35700",
"f  c #A55700",
"g  c #A05C00",
"h  c #956100",
"j  c #906600",
"k  c #9F6200",
"l  c #966D04",
"z  c #9E6E08",
"x  c #86522B",
"c  c #88502F",
"v  c #8F5D28",
"b  c #97562E",
"n  c #867036",
"m  c #887A3D",
"M  c #B27036",
"N  c #C0753B",
"B  c #80504C",
"V  c #995D41",
"C  c #945550",
"Z  c #9B5B52",
"A  c #8D7A42",
"S  c #97744E",
"D  c #9A784B",
"F  c #A56444",
"G  c #8F767A",
"H  c #847A7B",
"J  c #96797E",
"K  c #C87C40",
"L  c #DE8F28",
"P  c #DF8F2C",
"I  c #DE8E2D",
"U  c #E59C35",
"Y  c #E4943D",
"T  c #F19F33",
"R  c #E7A43B",
"E  c #EAA53E",
"W  c #FAAB35",
"Q  c #979852",
"!  c #BB954C",
"~  c #B1AB5F",
"^  c #8D827E",
"/  c #928A7D",
"(  c #A1896D",
")  c #A58E6E",
"_  c #CE8840",
"`  c #C7964A",
"'  c #DB9245",
"]  c #DA924A",
"[  c #DE964C",
"{  c #CF8A51",
"}  c #E89340",
"|  c #E09E48",
" . c #DCA048",
".. c #D9A250",
"X. c #DEAD50",
"o. c #C8B25C",
"O. c #E5A740",
"+. c #E2AB44",
"@. c #E1AC4E",
"#. c #EBB048",
"$. c #E5AF55",
"%. c #E4A558",
"&. c #F3B05F",
"*. c #D9B463",
"=. c #D1B06B",
"-. c #E7A779",
";. c #E4A77A",
":. c #FFCD50",
">. c #FBCF54",
",. c #FFD15C",
"<. c #FFD35D",
"1. c #C7C169",
"2. c #DAC478",
"3. c #D4D27B",
"4. c #FFCF65",
"5. c #F4D36C",
"6. c #FFD16B",
"7. c #FFDD6E",
"8. c #FCEC63",
"9. c #FFE769",
"0. c #FFE66C",
"q. c #FFED6D",
"w. c #FFED76",
"e. c #F8F979",
"r. c #FFFB78",
"t. c #FCFF7E",
"y. c #FFFE7F",
"u. c #5A6D8B",
"i. c #5A718B",
"p. c #5A6D94",
"a. c #5A7194",
"s. c #7B7983",
"d. c #7B7D83",
"f. c #627194",
"g. c #837D8B",
"h. c #8C8082",
"j. c #83818B",
"k. c #83858B",
"l. c #938B80",
"z. c #978F8D",
"x. c #9B908C",
"c. c #8B8994",
"v. c #8B8D94",
"b. c #8B9194",
"n. c #A08C8E",
"m. c #BE8C95",
"M. c #A79A94",
"N. c #A99F9E",
"B. c #B1A58F",
"V. c #B29EA0",
"C. c #AFA9A9",
"Z. c #B9B0A9",
"A. c #B5ABB3",
"S. c #B9AEBC",
"D. c #BCB4B2",
"F. c #B7B0B8",
"G. c #BBB4BC",
"H. c #C48F87",
"J. c #C7958A",
"K. c #C48F95",
"L. c #C0B9B1",
"P. c #C2B9BA",
"I. c #C9D082",
"U. c #EFC885",
"Y. c #FDC58A",
"T. c #FAC88D",
"R. c #F9CD8C",
"E. c #FDD190",
"W. c #F5E983",
"Q. c #FFEF80",
"!. c #FFEF84",
"~. c #FFFC80",
"^. c #FFF987",
"/. c #F3F58A",
"(. c #FFF28C",
"). c #FFFD8A",
"_. c #FFFF8A",
"`. c #FFFF8F",
"'. c #E3E894",
"]. c #FFFF9A",
"[. c #FFFF9C",
"{. c #FBCEBB",
"}. c #B4B6C5",
"|. c #BCB4C3",
" X c #B4BAC5",
".X c #B4BEC5",
"XX c #BDBAC5",
"oX c #BDBEC5",
"OX c #B4BECD",
"+X c #BDBACD",
"@X c #BDBECD",
"#X c #C2BAC7",
"$X c #BDC2CD",
"%X c #BDC6CD",
"&X c #BDC2D5",
"*X c #BDC6D5",
"=X c #CEC6C4",
"-X c #CEC9C6",
";X c #C5C2CD",
":X c #DFC2C7",
">X c #DDC7CA",
",X c #C5C2D5",
"<X c #C5C6D5",
"1X c #C5CAD5",
"2X c #CFC9D3",
"3X c #C5CADE",
"4X c #C5CEDE",
"5X c #CDCEDE",
"6X c #D4CED2",
"7X c #CDD2DE",
"8X c #CDD6DE",
"9X c #D5D6DE",
"0X c #FFDBC9",
"qX c #E2CED0",
"wX c #E9CED3",
"eX c #FFEBD3",
"rX c #FFEDD4",
"tX c #FFF1DC",
"yX c #CDD2E6",
"uX c #CDD6E6",
"iX c #D5D6E6",
"pX c #D5DAE6",
"aX c #D5D6EE",
"sX c #D5DAEE",
"dX c #D5DEEE",
"fX c #DEDEEE",
"gX c #DEE2EE",
"hX c #D5E2F6",
"jX c #DEE2F6",
"kX c #DEE6F6",
"lX c #D5E2FF",
"zX c #D5E6FF",
"xX c #DEE2FF",
"cX c #DEE6FF",
"vX c #E6E6FF",
/* pixels */
"f.a.f.p.f.a.f.u.f.u.f.i.f.a.f.i.f.f.f.",
"lXcXlXzXzXcXzXcXlXcXzXcXzXcXlXcXlXcXlX",
"kXhXkXjXcXjXxXjXxXjXxXjXxXjXxXjXxXjXxX",
"uXpXuXpXuXsXuXiXuXpXiXsXuXpXiXsXuXsXaX",
"iXyXiX7XiX1XN.2 X   o e V.5XiX1XiX5XyX",
"yXaXpXiX=Xr 6 n.>XwX:XJ w G qXgXpXiXuX",
"jXkXvXdX5 4 H.{.rXeXtX0XJ.B q dXfXgXjX",
"7XiX4Xm.# F -.Y.R.U.E.T.;.V 3 K.7XpXpX",
"yXyX<XC b K ' | $.X.@. .[ { c Z 5X1X5X",
"7XyX$X+ N } I U #.+.O.E L Y M @ 5X7XuX",
"fXsX5X$ ] P d t u y i g s T _ O 7X9XgX",
"4X5X$Xp %.R k h j l z k f W &.a %X1X7X",
"5X1X@Xv ` 4.>.q.w.Q.!.7.:.,...x XX<X5X",
"1X3XOXD =.5.9.8.r._.~.0.<.6.! S .X5X5X",
"pXuX5X( 1 o.^._.t.e.y.`.(.*.n ) 1X7XsX",
"1X1X@XM.% m 1./.[.].).W.2.A ; B.$X4X5X",
"3X<X*XF.0 : < Q I.'.3.~ , = 7 L.$X@X<X",
"1X1X%X%XG.l.8 & * - . > 9 / D.1X1X1X1X",
"iX8XiX7X7X-XZ.x.^ h.H z.C.6X5X5XyX7XyX",
"*X<X%X<X$X1X$XP.A.S.|.#X2X1X%X@X*X1X&X",
",X@X<X$X,X@X<X}.+X@X+X$X,X+X<X@X}.@X,X",
"1X<XoXXXXX@X X5XoX@XoX;X@X;X X$X5X<XoX",
"j.d.j.v.c.s.k.j.d.b.v.s.k.d.k.j.k.s.g."
};
