/* XPM */
static char *left_border_png[] = {
/* columns rows colors chars-per-pixel */
"3 18 3 1",
"  c #8E8E8E",
". c #FEFEFE",
"X c gray100",
/* pixels */
" .X",
" .X",
" .X",
" .X",
" .X",
" .X",
" .X",
" .X",
" .X",
" .X",
" .X",
" .X",
" .X",
" .X",
" .X",
" .X",
" .X",
" .X"
};
