/* XPM */
static char * left_active_xpm[] = {
"5 16 5 1",
" 	c None",
".	c #9E9E9E",
"+	c #CBCBCB",
"@	c #FFFFFF",
"#	c #4508A1 s inactive_color_2",
".+@##",
".+@##",
".+@##",
".+@##",
".+@##",
".+@##",
".+@##",
".+@##",
".+@##",
".+@##",
".+@##",
".+@##",
".+@##",
".+@##",
".+@##",
".+@##"};
