/* XPM */
static char *maximize_inactive_highlight_png[] = {
/* columns rows colors chars-per-pixel */
"19 23 224 2",
"   c #040404",
".  c #1E1E1E",
"X  c #083100",
"o  c #153705",
"O  c #103B00",
"+  c #163F03",
"@  c #193F10",
"#  c #1E3C16",
"$  c #14381E",
"%  c #1D3825",
"&  c #3E3E3E",
"*  c #1F4208",
"=  c #115900",
"-  c #195C00",
";  c #1E5F00",
":  c #275E01",
">  c #204718",
",  c #344E1E",
"<  c #315317",
"1  c #196000",
"2  c #1F6200",
"3  c #1D6800",
"4  c #206700",
"5  c #266600",
"6  c #266C00",
"7  c #277300",
"8  c #287501",
"9  c #3C6717",
"0  c #3A7F12",
"q  c #244F21",
"w  c #264C27",
"e  c #245221",
"r  c #3A5222",
"t  c #355C23",
"y  c #3D562C",
"u  c #3D573C",
"i  c #3F7225",
"p  c #3C7026",
"a  c #405828",
"s  c #416229",
"d  c #487524",
"f  c #446A37",
"g  c #4A6D35",
"h  c #4F6638",
"j  c #56733D",
"k  c #507F39",
"l  c #3B4C46",
"z  c #3F5B44",
"x  c #3A5449",
"c  c #4E4E4E",
"v  c gray35",
"b  c #5F5F5F",
"n  c #486841",
"m  c #4E684D",
"M  c #4B6C4D",
"N  c #4E744B",
"B  c #517643",
"V  c #5A7741",
"C  c #4C625F",
"Z  c #60754E",
"A  c #647A56",
"S  c #53616A",
"D  c #536C69",
"F  c #527362",
"G  c #656565",
"H  c #3F830C",
"J  c #3D8112",
"K  c #48801F",
"L  c #53941C",
"P  c #528B2D",
"I  c #55833A",
"U  c #51843F",
"Y  c #5B9735",
"T  c #5E9D35",
"R  c #589538",
"E  c #5C9D39",
"W  c #649D3E",
"Q  c #6DAB26",
"!  c #77AB2D",
"~  c #62A531",
"^  c #66AB3E",
"/  c #6EB83F",
"(  c #77B93B",
")  c #518844",
"_  c #5E804E",
"`  c #5F8E48",
"'  c #5F9A40",
"]  c #5E9945",
"[  c #6C9048",
"{  c #679A4B",
"}  c #689948",
"|  c #799B5F",
" . c #61A143",
".. c #6CA145",
"X. c #6BAB4A",
"o. c #70AA46",
"O. c #72A44F",
"+. c #74AE4A",
"@. c #78A757",
"#. c #76B656",
"$. c #7D9A64",
"%. c #789E6B",
"&. c #7F9177",
"*. c #7F9972",
"=. c #7CC245",
"-. c #87C53E",
";. c #81AF57",
":. c #849B6F",
">. c #84A169",
",. c #82A56D",
"<. c #95CC4D",
"1. c #8BCD52",
"2. c #89CF55",
"3. c #8FD75A",
"4. c #9BDB53",
"5. c #94D85F",
"6. c #A6DD5D",
"7. c #96D06A",
"8. c #9FD96B",
"9. c #96C670",
"0. c #A1C07C",
"q. c #A4D174",
"w. c #96E162",
"e. c #9FE862",
"r. c #AEF470",
"t. c #A9F676",
"y. c #B4F773",
"u. c #BBFB73",
"i. c #B8FC75",
"p. c #BEFF77",
"a. c #5A6D8B",
"s. c #5A718B",
"d. c #5A6D94",
"f. c #5A7194",
"g. c #7B7983",
"h. c #7B7D83",
"j. c #627194",
"k. c #837D8B",
"l. c #7A9181",
"z. c gray51",
"x. c #83818B",
"c. c #83858B",
"v. c #898989",
"b. c #8E8E8E",
"n. c #809785",
"m. c #869888",
"M. c #8B8994",
"N. c #8B8D94",
"B. c #8B9194",
"V. c #9B9B9B",
"C. c #8EA086",
"Z. c #95A389",
"A. c #99A98C",
"S. c #9CBE81",
"D. c #95A693",
"F. c #A2A2A2",
"G. c #ACB6AB",
"H. c #ACAEB4",
"J. c #ACB2BD",
"K. c #B3BEB0",
"L. c gray",
"P. c #A9C787",
"I. c #A6C792",
"U. c #B9D694",
"Y. c #BBC4B1",
"T. c #BBC1B7",
"R. c #C0FA81",
"E. c #CBFF80",
"W. c #C7FF8C",
"Q. c #CCFC8E",
"!. c #D1FF8E",
"~. c #D1FA94",
"^. c #DCFF9E",
"/. c #D3FFA0",
"(. c #D8FFA0",
"). c #B4B6C5",
"_. c #B4BAC5",
"`. c #B4BEC5",
"'. c #BDBAC5",
"]. c #BDBEC5",
"[. c #B4BECD",
"{. c #BDBACD",
"}. c #BDBECD",
"|. c #BDC2CD",
" X c #BDC6CD",
".X c #BDC2D5",
"XX c #BDC6D5",
"oX c #C5C2CD",
"OX c #C8C8C8",
"+X c #CACACA",
"@X c #C5C2D5",
"#X c #C5C6D5",
"$X c #C5CAD5",
"%X c #C5CADE",
"&X c #C5CEDE",
"*X c #CDCEDE",
"=X c #CDD2DE",
"-X c #CDD6DE",
";X c gray82",
":X c #D5D6DE",
">X c #D8D8D8",
",X c #D9E9CF",
"<X c #DAEBD9",
"1X c #E5F1DD",
"2X c #CDD2E6",
"3X c #CDD6E6",
"4X c #D5D6E6",
"5X c #D5DAE6",
"6X c #D5D6EE",
"7X c #D5DAEE",
"8X c #D5DEEE",
"9X c #DEDEEE",
"0X c #DEE2EE",
"qX c #D5E2F6",
"wX c #DEE2F6",
"eX c #DEE6F6",
"rX c #D5E2FF",
"tX c #D5E6FF",
"yX c #DEE2FF",
"uX c #DEE6FF",
"iX c #E7EEE7",
"pX c #F0FDEB",
"aX c #F7FFEE",
"sX c #E6E6FF",
/* pixels */
"j.f.j.d.j.f.j.a.j.a.j.s.j.f.j.s.j.j.j.",
"rXuXrXtXtXuXtXuXrXuXtXuXtXuXrXuXrXuXrX",
"eXqXeXwXuXwXyXwXyXwXyXwXyXwXyXwXyXwXyX",
"3X5X3X5X3X7X3X4X3X5X4X7X3X5X4X7X3X7X6X",
"4X2X4X=X4X$XF.c .   . G V.*X4X$X4X*X2X",
"2X6X5X4X;Xb v z.L.>XOXv.& b.+X0X5X4X3X",
"wXeXsXiXS l D.,XaX1XpX<Xl.x D 8X9X0XwX",
"=X4X&Xn.% n ,.S.>.j $.I.%.N $ m.=X5X5X",
"2X2X#XM > ` } O.d O 9 @.{ U e m *X$X*X",
"=X2X|.@ i Y E X.P : K o.T R ) # *X=X3X",
"9X7X*XX W ~ = 1 2 ; 5 - 4 ^ ] o =X:X0X",
"&X*X|.+ +.=.3 8 0 J H 6 7 /  .*  X$X=X",
"*X$X}.t ..1.w.t.2.L ( r.e.3.#.< '.#X*X",
"$X%X[._ I 8.y.p.4.Q -.u.i.5.' V `.*X*X",
"5X3X*X*.B ;.R.E.6.! <.!.W.7.p :.$X=X7X",
"$X$X}.A.z g q.Q.^.~.(./.9.k q Z.|.&X*X",
"%X#XXXY.C u s [ 0.U.P.| f w F T.|.}.#X",
"$X$X X XK.C.A y , r a h Z &.G.$X$X$X$X",
"4X-X4X=X=X$X|.).J.H.)._.}. X*X*X2X=X2X",
"XX#X X#X|.|.[.}.`.`._.]._.$X X}.XX$X.X",
"@X}.#X|.@X}.#X).{.}.{.|.@X{.#X}.).}.@X",
"$X#X].'.'.}._.*X].}.].oX}.oX_.|.*X#X].",
"x.h.x.N.M.g.c.x.h.B.N.g.c.h.c.x.c.g.k."
};
