/* XPM */
static char *maximize_highlight_png[] = {
/* columns rows colors chars-per-pixel */
"19 23 202 2",
"   c #040404",
".  c #1E1E1E",
"X  c #083100",
"o  c #153705",
"O  c #133D01",
"+  c #1C3E13",
"@  c #14381E",
"#  c #1D3825",
"$  c #3E3E3E",
"%  c #1F4208",
"&  c #115900",
"*  c #1C5E00",
"=  c #275E01",
"-  c #204718",
";  c #344E1E",
":  c #315317",
">  c #1C6100",
",  c #1D6800",
"<  c #236700",
"1  c #266C00",
"2  c #277300",
"3  c #287501",
"4  c #3C6717",
"5  c #3A7F12",
"6  c #254E24",
"7  c #245221",
"8  c #3A5222",
"9  c #355C23",
"0  c #3D562C",
"q  c #3D573C",
"w  c #3E7126",
"e  c #405828",
"r  c #416229",
"t  c #487524",
"y  c #446A37",
"u  c #4A6D35",
"i  c #4F6638",
"p  c #56733D",
"a  c #507F39",
"s  c #3B4C46",
"d  c #3F5B44",
"f  c #3A5449",
"g  c #4E4E4E",
"h  c gray36",
"j  c #486841",
"k  c #4D6A4D",
"l  c #4E744B",
"z  c #517643",
"x  c #5A7741",
"c  c #4C625F",
"v  c #60754E",
"b  c #647A56",
"n  c #53616A",
"m  c #536C69",
"M  c #527362",
"N  c #656565",
"B  c #6E7969",
"V  c #797979",
"C  c #3F830C",
"Z  c #3D8112",
"A  c #48801F",
"S  c #53941C",
"D  c #528B2D",
"F  c #53833C",
"G  c #5B9735",
"H  c #5E9D35",
"J  c #589538",
"K  c #5C9D39",
"L  c #649D3E",
"P  c #6DAB26",
"I  c #77AB2D",
"U  c #62A531",
"Y  c #66AB3E",
"T  c #6EB83F",
"R  c #77B93B",
"E  c #518844",
"W  c #5E804E",
"Q  c #5F8E48",
"!  c #5F9942",
"~  c #6C9048",
"^  c #679A4B",
"/  c #689948",
"(  c #799B5F",
")  c #61A143",
"_  c #6CA145",
"`  c #6BAB4A",
"'  c #70AA46",
"]  c #72A44F",
"[  c #74AE4A",
"{  c #78A757",
"}  c #76B656",
"|  c #74816F",
" . c #7D9A64",
".. c #789E6B",
"X. c #7E8D7A",
"o. c #7F9177",
"O. c #7F9972",
"+. c #7CC245",
"@. c #87C53E",
"#. c #81AF57",
"$. c #849B6F",
"%. c #83A36B",
"&. c #95CC4D",
"*. c #8ACE54",
"=. c #8FD75A",
"-. c #9BDB53",
";. c #94D85F",
":. c #A6DD5D",
">. c #96D06A",
",. c #9FD96B",
"<. c #96C670",
"1. c #A1C07C",
"2. c #A4D174",
"3. c #96E162",
"4. c #9FE862",
"5. c #ACF573",
"6. c #B4F773",
"7. c #BBFD75",
"8. c #7A9181",
"9. c gray51",
"0. c #8C8C8C",
"q. c #829382",
"w. c #889685",
"e. c #869888",
"r. c #9B9B9B",
"t. c #8EA086",
"y. c #95A389",
"u. c #99A98C",
"i. c #9CBE81",
"p. c #95A693",
"a. c #A2A2A2",
"s. c #A4B0A4",
"d. c #A8B2A7",
"f. c #ACB6AB",
"g. c #B3BEB0",
"h. c #B4B7BE",
"j. c #B4BBBE",
"k. c gray",
"l. c #A9C787",
"z. c #A6C792",
"x. c #B9D694",
"c. c #AFC2A4",
"v. c #B4C4A7",
"b. c #BBC9AF",
"n. c #BBC2B4",
"m. c #B9C8B1",
"M. c #C0FA81",
"N. c #CBFF80",
"B. c #C7FF8C",
"V. c #CCFC8E",
"C. c #D1FF8E",
"Z. c #D1FA94",
"A. c #DCFF9E",
"S. c #C1D6B5",
"D. c #C3D6BA",
"F. c #D3FFA0",
"G. c #D8FFA0",
"H. c #BAC2C4",
"J. c #C2C2CE",
"K. c gray79",
"L. c #CCDDC4",
"P. c #C6D0C8",
"I. c #CAD5CB",
"U. c #CCDBC8",
"Y. c #D5DECB",
"T. c #CFD4D8",
"R. c #D2D3D1",
"E. c #D9DCD3",
"W. c #D4D4DE",
"Q. c #DADADB",
"!. c #D9E9CF",
"~. c #D6E1D0",
"^. c #DAE0D2",
"/. c #DCE2D8",
"(. c #DAEBD9",
"). c #E5F1DD",
"_. c #DCDDE3",
"`. c #DEDDE9",
"'. c #E3DDE7",
"]. c #E1DFED",
"[. c #E2DDF1",
"{. c #DCE3E1",
"}. c #DEE1E8",
"|. c #E4E4E4",
" X c #E4EAE5",
".X c #ECEBE6",
"XX c #E4E4EB",
"oX c #EBE4ED",
"OX c #E6EAED",
"+X c #EDEDEC",
"@X c #F1EAEC",
"#X c #F4FDED",
"$X c #E5E3F1",
"%X c #EDE6F3",
"&X c #EAEAF2",
"*X c #F1EAF5",
"=X c #F0ECFA",
"-X c #F5F4F4",
";X c #FCF7F6",
":X c #FBFCF5",
">X c #FBF4F9",
",X c #FDFDFD",
/* pixels */
"V V V V V V V V V V V V V V V V V V V ",
",X,X,X,X,X,X,X,X,X,X,X,X,X,X,X,X,X,X,X",
",X,X,X,X-X,X,X,X,X,X,X,X-X,X,X,X,X,X,X",
"-X,X-X,X,X,X-X,X,X,X-X,X,X,X,X,X,X,X,X",
"+X-X-X,X,X,Xa.g .   . N r.|.-X,X,X-XOX",
",X,X,X,XI.N h 9.n.R.K.0.$ 0.K.,X,X-X;X",
",X,X,X+Xn s p.^.#X).#X(.X.f m +X,X,X,X",
"-X,X,X8.# j %.i.%.x ..z...l @ e.,X,X,X",
"&X>X(.k - Q ^ ] t O 4 { ^ F 7 k  X,X&X",
"-X:XU.% w G K ` D = A ' H J E + I.,X-X",
",X,XL.O Y U & > * * < * , Y ! o L.,X,X",
"OX#Xb.% [ [ < 3 5 Z A 1 3 ' ) % D.-X+X",
" X/.v.: / *.3.5.*.S R 5.4.=.} : v..X X",
"-X{.m.W F ,.6.7.-.P @.7.7.=.! x b..X+X",
",X,X~.$.z #.7.N.:.I &.V.B.>.w $.~.,X,X",
"+X-X/.u.d u 2.V.A.Z.A.F.<.F 7 y.E.;X+X",
".X;X.Xn.c q r ~ %.S.2.%.y 6 M n.OX;X.X",
"XX@X@XR.g.t.b 0 ; 8 e p v $.f.Q.oXoX|.",
"-X,X,X>X+XP.s.w.$.V B q.s.K.&X,X,X>X-X",
".XoX*X*XOXOXW.H.j.h.h.J.W.'.&X=X=X%XoX",
"Q.oXoX$XXX&XXX}._.`.`.[.}.OXXX$X%X%XQ.",
"'.'.'.'.|.|. X X{.Q._.XXXX{.{.}.$XoX_.",
"V V V V V V V V V V V V V V V V V V V "
};
