/* XPM */
static char *maximize_active_png[] = {
/* columns rows colors chars-per-pixel */
"19 23 194 2",
"   c #040404",
".  c #1E1E1E",
"X  c #083100",
"o  c #153705",
"O  c #163F03",
"+  c #1C3E13",
"@  c #1C3F1E",
"#  c #21301D",
"$  c #3E3E3E",
"%  c #1F4208",
"&  c #1F4218",
"*  c #344E1E",
"=  c #235516",
"-  c #315317",
";  c #2D5E27",
":  c #3A5222",
">  c #355C23",
",  c #3D562C",
"<  c #3E4C3B",
"1  c #3D7327",
"2  c #405828",
"3  c #476B21",
"4  c #486433",
"5  c #4F6638",
"6  c #407D30",
"7  c #557C32",
"8  c #547C3A",
"9  c #4E4E4E",
"0  c gray36",
"q  c #4D6A4D",
"w  c #4C7741",
"e  c #577543",
"r  c #5A7741",
"t  c #60754E",
"y  c #637F4C",
"u  c #647A56",
"i  c #656565",
"p  c #6E7969",
"a  c #797979",
"s  c #4B8038",
"d  c #5E8F34",
"f  c #528D3D",
"g  c #529433",
"h  c #5F973E",
"j  c #5B9A3B",
"k  c #61A534",
"l  c #62A836",
"z  c #65A43B",
"x  c #64A93C",
"c  c #75B53A",
"v  c #72BA3C",
"b  c #7DB83A",
"n  c #56804E",
"m  c #5E804E",
"M  c #5C9642",
"N  c #618444",
"B  c #65814E",
"V  c #619B47",
"C  c #629248",
"Z  c #759B46",
"A  c #6FA543",
"S  c #74AF41",
"D  c #72A74F",
"F  c #75AD4A",
"G  c #7FAF4C",
"H  c #7EB742",
"J  c #77BD43",
"K  c #7BB048",
"L  c #77BD4B",
"P  c #6FA952",
"I  c #70A753",
"U  c #7FB152",
"Y  c #74816F",
"T  c #7E8B7C",
"R  c #7F9177",
"E  c #7F9972",
"W  c #7EAA6D",
"Q  c #81B93E",
"!  c #849B6F",
"~  c #869879",
"^  c #86AA60",
"/  c #84AD75",
"(  c #87CB42",
")  c #84CC49",
"_  c #8AD14F",
"`  c #96D749",
"'  c #97D550",
"]  c #9ADC54",
"[  c #92D459",
"{  c #9AE252",
"}  c #A9EE5D",
"|  c #99C76F",
" . c #95CD6A",
".. c #8FD364",
"X. c #9CD866",
"o. c #95CA72",
"O. c #A3C975",
"+. c #9FE662",
"@. c #9FE865",
"#. c #AFF360",
"$. c #ACF369",
"%. c #B0F769",
"&. c #B7FD69",
"*. c #B9FD6C",
"=. c #AAED72",
"-. c #BCFD73",
";. c #BBFD79",
":. c #C2FF78",
">. c gray51",
",. c #8C8C8C",
"<. c #859483",
"1. c #889685",
"2. c #869888",
"3. c #9B9B9B",
"4. c #8EA086",
"5. c #95A389",
"6. c #99A98C",
"7. c #9AA795",
"8. c #A2A2A2",
"9. c #A4B0A4",
"0. c #A8B2A7",
"q. c #ACB6AB",
"w. c #B3BEB0",
"e. c #B4B7BE",
"r. c #B4BBBE",
"t. c gray",
"y. c #9FC58C",
"u. c #A3CC88",
"i. c #ADD28C",
"p. c #B4D783",
"a. c #B2D394",
"s. c #B6E683",
"d. c #B5EE85",
"f. c #AFC2A4",
"g. c #B4C4A7",
"h. c #BBC9AF",
"j. c #BBC2B4",
"k. c #B9C8B1",
"l. c #C0FB87",
"z. c #CDFF8A",
"x. c #D0FF89",
"c. c #CCFF91",
"v. c #CEFE9A",
"b. c #D3FF94",
"n. c #DCFF9C",
"m. c #C1D6B5",
"M. c #C3D6BA",
"N. c #BAC2C4",
"B. c #C2C2CE",
"V. c gray79",
"C. c #CCDDC4",
"Z. c #C6D0C8",
"A. c #CAD5CB",
"S. c #CCDBC8",
"D. c #D5DECB",
"F. c #CFD4D8",
"G. c #D2D3D1",
"H. c #D9DCD3",
"J. c #D4D4DE",
"K. c #DADADB",
"L. c #D4E1CF",
"P. c #D6E1D0",
"I. c #DAE0D2",
"U. c #DCEAD3",
"Y. c #DCE2D8",
"T. c #E5F1DB",
"R. c #DCDDE3",
"E. c #DEDDE9",
"W. c #E3DDE7",
"Q. c #E1DFED",
"!. c #E2DDF1",
"~. c #DCE3E1",
"^. c #DEE1E8",
"/. c #E4E4E4",
"(. c #E4EAE5",
"). c #ECEBE6",
"_. c #E4E4EB",
"`. c #EBE4ED",
"'. c #E6EAED",
"]. c #EDEDEC",
"[. c #F1EAEC",
"{. c #EAF6E2",
"}. c #F3FFE7",
"|. c #F5FBEF",
" X c #E5E3F1",
".X c #EDE6F3",
"XX c #EAEAF2",
"oX c #F1EAF5",
"OX c #F0ECFA",
"+X c #F5F4F4",
"@X c #FCF7F6",
"#X c #FBFCF5",
"$X c #FBF4F9",
"%X c #FDFDFD",
/* pixels */
"a a a a a a a a a a a a a a a a a a a ",
"%X%X%X%X%X%X%X%X%X%X%X%X%X%X%X%X%X%X%X",
"%X%X%X%X+X%X%X%X%X%X%X%X+X%X%X%X%X%X%X",
"+X%X+X%X%X%X+X%X%X%X+X%X%X%X%X%X%X%X%X",
"].+X+X%X%X%X8.9 .   . i 3./.+X%X%X+X].",
"%X%X%X%XG.0 0 >.t.H.V.,.$ ,.V.%X%X+X+X",
"%X%X%X(.T < 1.U.}.T.}.L.7.@ 1.).%X%X%X",
"+X%X%X2.@ n W u.i.a.a.6./ w & 2.%X%X%X",
"XX+X(.q ; s j F K G U D M f = q (.%XXX",
"+X|.C.% s g x c b b H F z j 1 + A.%X+X",
"%X%XC.X M x v ( ` ] ` ) J k h o S.%X%X",
"].|.h.% P L ) { } #.} ] _ v F + M.+X].",
"(.Y.f.> I ..@.$.&.*.*.#.+.[ A - g.)./.",
"].(.k.m C  .=.;.-.-.:.:.=.X.d 8 h.{.[.",
"%X%XP.E 8 o.d.c.x.x.b.b.l.| 7 ! D.%X%X",
"].+XI.6.e 8 | v.b.b.n.b.s.7 y 5.H.#XoX",
").@X).j.~ 4 N ^ O.p.O.Z 3 u ~ j.).$X/.",
"/.[.[.G.w.4.u , * : 2 5 e ~ q.K..X`./.",
"+X$X%X%X].Z.9.1.~ p p <.0.Z.'.%X%X$X+X",
")..XoXoXXX'.G.N.r.e.e.B.R.Q.XXOXOX.X`.",
"K.W.!. X_.XX_.^.R.E.E.!.!.'._. X.X.XK.",
"/._.W./._././.(.~.K.R._._.Y.~._. X_./.",
"a a a a a a a a a a a a a a a a a a a "
};
