/* XPM */
static char *SystemMenuButton_____png[] = {
/* columns rows colors chars-per-pixel */
"22 23 214 2",
"   c #313439",
".  c #393439",
"X  c #393839",
"o  c #413439",
"O  c #393841",
"+  c #39404A",
"@  c #41404A",
"#  c #4A444A",
"$  c #525052",
"%  c #5A5962",
"&  c #5A657B",
"*  c #736D6A",
"=  c #7B797B",
"-  c #000483",
";  c #080883",
":  c #00008B",
">  c #08008B",
",  c #08048B",
"<  c #00089C",
"1  c #183494",
"2  c #29289C",
"3  c #313C94",
"4  c #31349C",
"5  c #083CA4",
"6  c #0830AC",
"7  c #103CA4",
"8  c #0034B4",
"9  c #2938A4",
"0  c #314094",
"q  c #31449C",
"w  c #396D9C",
"e  c #0840A4",
"r  c #1859A4",
"t  c #295DAC",
"y  c #4A508B",
"u  c #41618B",
"i  c #41658B",
"p  c #5A6983",
"a  c #526994",
"s  c #6A7183",
"d  c #6A7583",
"f  c #4A59A4",
"g  c #416DAC",
"h  c #6A6DB4",
"j  c #7371B4",
"k  c #1861C5",
"l  c #186DCD",
"z  c #317DD5",
"x  c #837D83",
"c  c #7B8DBD",
"v  c #3181CD",
"b  c #4A85CD",
"n  c #4A8DCD",
"m  c #5289CD",
"M  c #4181D5",
"N  c #4189D5",
"B  c #4A89DE",
"V  c #4A8DDE",
"C  c #528DD5",
"Z  c #5A8DD5",
"A  c #528DDE",
"S  c #5A89DE",
"D  c #4A91DE",
"F  c #5291D5",
"G  c #5A99D5",
"H  c #5291DE",
"J  c #5A9DDE",
"K  c #6A9DC5",
"L  c #629DDE",
"P  c #5AAAC5",
"I  c #5AA1DE",
"U  c #73A5D5",
"Y  c #73AADE",
"T  c #7BAADE",
"R  c #7BAEDE",
"E  c #4A8DE6",
"W  c #5A85E6",
"Q  c #528DE6",
"!  c #4A91E6",
"~  c #5A91EE",
"^  c #5A99EE",
"/  c #5A9DEE",
"(  c #6299E6",
")  c #52A1EE",
"_  c #5AA1EE",
"`  c #5AAAEE",
"'  c #5AA1F6",
"]  c #6AA1EE",
"[  c #73A5E6",
"{  c #7BAAE6",
"}  c #7BAEE6",
"|  c #7BAEEE",
" . c #62A5F6",
".. c #62AAF6",
"X. c #62A5FF",
"o. c #62AAFF",
"O. c #73A5F6",
"+. c #73B6F6",
"@. c #73B2FF",
"#. c #73BAFF",
"$. c #7BBEFF",
"%. c #7BCAF6",
"&. c #7BC2FF",
"*. c #7BC6FF",
"=. c #838583",
"-. c #8B8D8B",
";. c #9C918B",
":. c #948D94",
">. c #949194",
",. c #9C9594",
"<. c #9C999C",
"1. c #9C9D9C",
"2. c #949DA4",
"3. c #9C99A4",
"4. c #9C9DA4",
"5. c #A49DA4",
"6. c #94A1A4",
"7. c #9CA1A4",
"8. c #A4A1AC",
"9. c #A4AAAC",
"0. c #ACAEAC",
"q. c #B4B2AC",
"w. c #ACB6B4",
"e. c #B4BABD",
"r. c #BDBEBD",
"t. c #C5BEBD",
"y. c #8391DE",
"u. c #9CBEDE",
"i. c #ACAAC5",
"p. c #BDBEC5",
"a. c #B4B2CD",
"s. c #83B2E6",
"d. c #83B2EE",
"f. c #94BEEE",
"g. c #9CBAEE",
"h. c #9CBEEE",
"j. c #9CBAF6",
"k. c #ACBEE6",
"l. c #A4BEEE",
"z. c #ACCADE",
"x. c #9CC2E6",
"c. c #83D6EE",
"v. c #83C2FF",
"b. c #83C6FF",
"n. c #83CAFF",
"m. c #8BCEFF",
"M. c #8BDAF6",
"N. c #8BD2FF",
"B. c #94D6FF",
"V. c #94DAFF",
"C. c #9CDEFF",
"Z. c #ACC2E6",
"A. c #A4C2EE",
"S. c #ACC2EE",
"D. c #B4C6E6",
"F. c #B4C2EE",
"G. c #B4C6EE",
"H. c #B4CAEE",
"J. c #BDCEEE",
"K. c #A4C2F6",
"L. c #94E6FF",
"P. c #9CE2FF",
"I. c #94EAFF",
"U. c #9CEAFF",
"Y. c #9CF2FF",
"T. c #A4EEFF",
"R. c #A4F2FF",
"E. c #C5C2C5",
"W. c #C5C6C5",
"Q. c #CDCEC5",
"!. c #CDCACD",
"~. c #D5CACD",
"^. c #D5D6CD",
"/. c #DED2CD",
"(. c #CDCADE",
"). c #D5CED5",
"_. c #C5D2D5",
"`. c #CDD2D5",
"'. c #D5D2D5",
"]. c #D5D6D5",
"[. c #DED6D5",
"{. c #D5D6DE",
"}. c #DED2DE",
"|. c #DED6DE",
" X c #D5DADE",
".X c #DEDADE",
"XX c gray87",
"oX c #E6E2DE",
"OX c #DEDAE6",
"+X c #DEDEE6",
"@X c #E6DAE6",
"#X c #E6DEE6",
"$X c #DEE2E6",
"%X c #E6E2E6",
"&X c #E6E6E6",
"*X c #EEE2E6",
"=X c #EEE6E6",
"-X c #EEEAE6",
";X c #E6E2EE",
":X c #E6E6EE",
">X c #EEE6EE",
",X c #E6EAEE",
"<X c #EEEAEE",
"1X c #EEEEEE",
"2X c #EEEAF6",
"3X c #EEEEF6",
"4X c #F6EEF6",
"5X c #F6F2F6",
"6X c #FFFFF6",
"7X c #F6F6FF",
"8X c #FFF6FF",
"9X c #F6FAFF",
"0X c #FFFAFF",
"qX c gray100",
/* pixels */
"= x = x = x = x = x = x = x = x = x = x = x ",
"qXqXqXqXqXqXqXqXqXqXqXqXqXqXqXqXqXqXqXqXqXqX",
"qXqXqXqXqXqXqXqXqXqXqXqXqXqXqXqXqXqXqXqXqXqX",
"qX0XqX0XqX0XqX0XqX0XqX0XqX0XqX0XqX0XqX0XqX0X",
"4X5X4X5X4X5X4X5X4X5X4X5X4X5X4X5X4X5X4X5X4X5X",
"3X7X3X2X:X$X,X+X X:X%X{.+X;X>X#X+X#X#X4X1X5X",
"qX9X/.h 2 - > : > , > : < : > > ; 4 j (.0X6X",
"&Xi.0 9 c k.D.G.S.F.G.H.z.J.D.D.Z.y.q 3 a.*X",
" Xy 8 W j.h.l.l.A.h.K.A.g.g.A.u.x.f.S 6 f ~.",
"p.1 l G } T { d.U Y R R T s.R | [ Y I k 7 t.",
"e.e z b C F A B Q V H n A Q E E ~ M N v 5 w.",
"1.r ! ( J  .' X.o. .) .. . .` _ / ^ H D t 6.",
"8.i Z L $.#.v.$.*.n.n.*.&.*.b.*.b.+.] m u 7.",
"r.s w @.@.m.N.C.V.N.V.B.M.P.N.B.%.$.O.g d E.",
"*X9.& p P c.T.Y.U.Y.I.I.R.L.Y.Y.V.K a p 5.XX",
"[.!.2.d $ #   @ X O X O o . X X + % * ;.W.&X",
"&X^.E.0.1.-.>.<.>.=.>.-.:.=.:.,.3.4.q.Q.'..X",
"-X1X&XoX|.).}.).)..X|.|._.`.].OX}.|.|.=X<X<X",
"8X0X8X0X8X0X8X0X8X0X8X0X8X0X8X0X8X0X8X0X8X0X",
"4X<X4X<X4X<X4X<X4X<X4X<X4X<X4X<X4X<X4X<X4X<X",
"@X#X@X#X@X#X@X#X@X#X@X#X@X#X@X#X@X#X@X#X@X#X",
">X%X>X%X>X%X>X%X>X%X>X%X>X%X>X%X>X%X>X%X>X%X",
"= x = x = x = x = x = x = x = x = x = x = x "
};
