/* XPM */
static char *SystemMenuButton_____png[] = {
/* columns rows colors chars-per-pixel */
"23 23 69 1",
"  c #393839",
". c #393C39",
"X c #414041",
"o c #524C52",
"O c #525052",
"+ c #525552",
"@ c #5A555A",
"# c #5A595A",
"$ c #625D62",
"% c #626562",
"& c #6A696A",
"* c #736D73",
"= c #737173",
"- c #7B757B",
"; c #7B797B",
": c #7B7D7B",
"> c #837D83",
", c #838183",
"< c #8B898B",
"1 c #8B8D8B",
"2 c #948D94",
"3 c #949194",
"4 c #949594",
"5 c #9C959C",
"6 c #9C9D9C",
"7 c #A49DA4",
"8 c #A4A1A4",
"9 c #ACAAAC",
"0 c #ACAEAC",
"q c #B4B2B4",
"w c #B4B6B4",
"e c #BDB6BD",
"r c #BDBABD",
"t c #BDBEBD",
"y c #C5BEC5",
"u c #C5C2C5",
"i c #C5C6C5",
"p c #CDC6CD",
"a c #CDCACD",
"s c #CDCECD",
"d c #D5CED5",
"f c #D5D2D5",
"g c #D5D6D5",
"h c #D5D6DE",
"j c #DED6DE",
"k c #DEDADE",
"l c gray87",
"z c #DEDAE6",
"x c #DEDEE6",
"c c #E6DAE6",
"v c #E6DEE6",
"b c #E6E2E6",
"n c #E6E6E6",
"m c #E6E6EE",
"M c #EEE6EE",
"N c #EEEAEE",
"B c #EEEEEE",
"V c #F6EEE6",
"C c #F6F2EE",
"Z c #FFF2EE",
"A c #EEEAF6",
"S c #F6EEF6",
"D c #EEF2F6",
"F c #F6F2F6",
"G c #F6F6F6",
"H c #FFF6FF",
"J c #F6FAFF",
"K c #FFFAFF",
"L c gray100",
/* pixels */
";;>;>;>;>;>;>;>;>;>;>;>",
"LLLLLLLLLLLLLLLLLLLLLLL",
"LLLLLLLLLLLLLLLLLLLLLLL",
"LLKLKLKLKLKLKLKLKLKLKLK",
"SSFSFSFSFSFSFSFSFSFSFSF",
"DJFmAzNlxmbhbbMxbvvVZCC",
"LKs,#o#@$#+$#@O$+$;aKLL",
"b9&4kKGHGFKGKGKHKf5%elF",
"j-,fHKKLKKKLNLHFFLs<=fN",
"u=qikgvgjjkgbbkbggf0-rv",
"w2tpadafdfsafpsffaiu<qK",
"61pjkbbbblbbNkblvafs36b",
"8>aknHKKLLHLHLKKKSgs;7l",
"y:2nGLLLLLLLLLLLLBB<>tb",
"k9&3iKLLLLLLLLLLGd<*7bH",
"ki7*#. XX .    .X#*4plF",
"bjyq63331<13<<2537qifbb",
"NnNljsjsjgjgfskglgjnBNM",
"HHKHKHKHKHKHKHKHKHKHKHK",
"SSNSNSNSNSNSNSNSNSNSNSN",
"ccvcvcvcvcvcvcvcvcvcvcv",
"MMbMbMbMbMbMbMbMbMbMbMb",
";;>;>;>;>;>;>;>;>;>;>;>"
};
