/* XPM */
static char *SystemMenuButton_____png[] = {
/* columns rows colors chars-per-pixel */
"22 23 210 2",
"   c #313439",
".  c #393439",
"X  c #393839",
"o  c #413439",
"O  c #393841",
"+  c #39404A",
"@  c #41404A",
"#  c #4A444A",
"$  c #525052",
"%  c #5A5962",
"&  c #5A657B",
"*  c #736D6A",
"=  c #737573",
"-  c #7B757B",
";  c #7B7D7B",
":  c #000483",
">  c #080883",
",  c #00008B",
"<  c #08008B",
"1  c #08048B",
"2  c #00089C",
"3  c #183494",
"4  c #29289C",
"5  c #313C94",
"6  c #31349C",
"7  c #083CA4",
"8  c #0830AC",
"9  c #103CA4",
"0  c #0034B4",
"q  c #2938A4",
"w  c #314094",
"e  c #31449C",
"r  c #396D9C",
"t  c #0840A4",
"y  c #1859A4",
"u  c #295DAC",
"i  c #4A508B",
"p  c #41618B",
"a  c #41658B",
"s  c #5A6983",
"d  c #526994",
"f  c #6A7183",
"g  c #6A7583",
"h  c #4A59A4",
"j  c #416DAC",
"k  c #6A6DB4",
"l  c #7371B4",
"z  c #1861C5",
"x  c #186DCD",
"c  c #317DD5",
"v  c #837D83",
"b  c #7B8DBD",
"n  c #3181CD",
"m  c #4A85CD",
"M  c #4A8DCD",
"N  c #5289CD",
"B  c #4181D5",
"V  c #4189D5",
"C  c #4A89DE",
"Z  c #4A8DDE",
"A  c #528DD5",
"S  c #5A8DD5",
"D  c #528DDE",
"F  c #5A89DE",
"G  c #4A91DE",
"H  c #5291D5",
"J  c #5A99D5",
"K  c #5291DE",
"L  c #5A9DDE",
"P  c #6A9DC5",
"I  c #629DDE",
"U  c #5AAAC5",
"Y  c #5AA1DE",
"T  c #73A5D5",
"R  c #73AADE",
"E  c #7BAADE",
"W  c #7BAEDE",
"Q  c #4A8DE6",
"!  c #5A85E6",
"~  c #528DE6",
"^  c #4A91E6",
"/  c #5A91EE",
"(  c #5A99EE",
")  c #5A9DEE",
"_  c #6299E6",
"`  c #52A1EE",
"'  c #5AA1EE",
"]  c #5AAAEE",
"[  c #5AA1F6",
"{  c #6AA1EE",
"}  c #73A5E6",
"|  c #7BAAE6",
" . c #7BAEE6",
".. c #7BAEEE",
"X. c #62A5F6",
"o. c #62AAF6",
"O. c #62A5FF",
"+. c #62AAFF",
"@. c #73A5F6",
"#. c #73B6F6",
"$. c #73B2FF",
"%. c #73BAFF",
"&. c #7BBEFF",
"*. c #7BCAF6",
"=. c #7BC2FF",
"-. c #7BC6FF",
";. c #838183",
":. c #8B898B",
">. c #8B8D8B",
",. c #9C918B",
"<. c #948D94",
"1. c #949194",
"2. c #9C959C",
"3. c #9C9D9C",
"4. c #949DA4",
"5. c #A49DA4",
"6. c #94A1A4",
"7. c #9CA1A4",
"8. c #A4A1AC",
"9. c #A4AAAC",
"0. c #ACB6B4",
"q. c #B4B2B4",
"w. c #B4BABD",
"e. c #BDBEBD",
"r. c #C5BEBD",
"t. c #8391DE",
"y. c #9CBEDE",
"u. c #ACAAC5",
"i. c #BDBEC5",
"p. c #B4B2CD",
"a. c #BDBECD",
"s. c #83B2E6",
"d. c #83B2EE",
"f. c #94BEEE",
"g. c #9CBAEE",
"h. c #9CBEEE",
"j. c #9CBAF6",
"k. c #ACBEE6",
"l. c #A4BEEE",
"z. c #C5BEC5",
"x. c #C5BED5",
"c. c #BDC2CD",
"v. c #ACCADE",
"b. c #BDC6D5",
"n. c #9CC2E6",
"m. c #83D6EE",
"M. c #83C2FF",
"N. c #83C6FF",
"B. c #83CAFF",
"V. c #8BCEFF",
"C. c #8BDAF6",
"Z. c #8BD2FF",
"A. c #94D6FF",
"S. c #94DAFF",
"D. c #9CDEFF",
"F. c #ACC2E6",
"G. c #A4C2EE",
"H. c #ACC2EE",
"J. c #B4C6E6",
"K. c #B4C2EE",
"L. c #B4C6EE",
"P. c #B4CAEE",
"I. c #BDCEEE",
"U. c #A4C2F6",
"Y. c #94E6FF",
"T. c #9CE2FF",
"R. c #94EAFF",
"E. c #9CEAFF",
"W. c #9CF2FF",
"Q. c #A4EEFF",
"!. c #A4F2FF",
"~. c #C5C2C5",
"^. c #C5C6C5",
"/. c #CDCACD",
"(. c #D5CACD",
"). c #DED2CD",
"_. c #C5C2D5",
"`. c #C5C6D5",
"'. c #C5CAD5",
"]. c #CDC6DE",
"[. c #C5CADE",
"{. c #CDCADE",
"}. c #CDCEDE",
"|. c #D5D2D5",
" X c #DED6D5",
".X c #DED6DE",
"XX c #D5DADE",
"oX c gray87",
"OX c #CDCEE6",
"+X c #CDD2E6",
"@X c #CDD2EE",
"#X c #D5D2E6",
"$X c #D5D6E6",
"%X c #D5D2EE",
"&X c #D5D6EE",
"*X c #DED2EE",
"=X c #DED6EE",
"-X c #D5DAEE",
";X c #DEDAEE",
":X c #DEDEF6",
">X c #D5E6FF",
",X c #DEE6FF",
"<X c #DEEAFF",
"1X c #E6E6E6",
"2X c #EEE2E6",
"3X c #E6E2FF",
"4X c #E6E6FF",
"5X c #EEE6FF",
"6X c #E6EAFF",
"7X c #EEEAFF",
/* pixels */
"- = - = - = - = - = - = - = - = - = - = - = ",
",X6X,X6X,X6X,X6X,X6X,X6X,X<X>X<X>X<X>X<X>X<X",
"4X3X4X3X4X3X4X3X4X3X4X3X4X3X4X3X4X3X4X3X4X3X",
"-X:X-X:X-X:X-X:X-X:X-X:X-X;X$X;X$X;X$X;X$X;X",
"$X+X$X#X$X+X$X#X$X+X$X#X$X%X=X*X=X%X=X*X=X%X",
"$X;X$X;X$X;X$X;X$X;X$X;X$X;X$X;X$X;X$X;X$X;X",
"4X3X).k 4 : < , < 1 < , 2 , < < > 6 l {.5X7X",
"1Xu.w q b k.J.L.H.K.L.P.v.I.J.J.F.t.e 5 p.2X",
"XXi 0 ! j.h.l.l.G.h.U.G.g.g.G.y.n.f.F 8 h (.",
"i.3 x J  .E | d.T R W W E s.W ..} R Y z 9 r.",
"w.t c m A H D C ~ Z K M D ~ Q Q / B V n 7 0.",
"3.y ^ _ L X.[ O.+.X.` o.X.X.] ' ) ( K G u 6.",
"8.a S I &.%.M.&.-.B.B.-.=.-.N.-.N.#.{ N p 7.",
"e.f r $.$.V.Z.D.S.Z.S.A.C.T.Z.A.*.&.@.j g ~.",
"2X9.& s U m.Q.W.E.W.R.R.!.Y.W.W.S.P d s 5.oX",
" X/.4.g $ #   @ X O X O o . X X + % * ,.^.1X",
"{..Xz.q.3.1.1.1.>.:.>.1.:.:.<.2.1.5.q.^.|.OX",
"'.}.'.}.'.}.'.}.'.}.'.}.'.{.`.{.`.{.`.{.`.{.",
"&X%X&X@X&X%X&X@X&X%X&X@X&X=X;X&X;X=X;X&X;X=X",
"`.{.`.{.`.{.`.{.`.{.`.{.`.[.b.[.b.[.b.[.b.[.",
"{.`.{.].{.`.{.].{.`.{.].{.a._.x._.a._.x._.a.",
"`.{.`.{.`.{.`.{.`.{.`.{.`.`.c.`.c.`.c.`.c.`.",
";.v ;.; ;.v ;.; ;.v ;.; ;.v ;.; ;.v ;.; ;.v "
};
