/* XPM */
static char *SystemMenuButton_____png[] = {
/* columns rows colors chars-per-pixel */
"22 23 97 2",
"   c #737573",
".  c #7B757B",
"X  c #7B7D7B",
"o  c #837D83",
"O  c #7B818B",
"+  c #838183",
"@  c #83818B",
"#  c #83858B",
"$  c #838594",
"%  c #838994",
"&  c #8B8D9C",
"*  c #8B919C",
"=  c #8B959C",
"-  c #94919C",
";  c #94959C",
":  c #9495A4",
">  c #9499A4",
",  c #949DA4",
"<  c #949DAC",
"1  c #9C9DAC",
"2  c #9CA1AC",
"3  c #9CA5AC",
"4  c #9CA1B4",
"5  c #9CA5B4",
"6  c #A4A5B4",
"7  c #A4AAB4",
"8  c #ACAAB4",
"9  c #ACAEB4",
"0  c #A4AABD",
"q  c #A4AEBD",
"w  c #ACAEBD",
"e  c #ACB2B4",
"r  c #ACB2BD",
"t  c #B4B2BD",
"y  c #B4B6BD",
"u  c #ACB2C5",
"i  c #ACB6C5",
"p  c #B4B6C5",
"a  c #B4BAC5",
"s  c #B4B6CD",
"d  c #B4BACD",
"f  c #B4BECD",
"g  c #BDBECD",
"h  c #C5BED5",
"j  c #BDC2CD",
"k  c #BDC2D5",
"l  c #BDC6D5",
"z  c #C5C2CD",
"x  c #C5C6CD",
"c  c #C5C2D5",
"v  c #C5C6D5",
"b  c #C5CAD5",
"n  c #CDCAD5",
"m  c #CDCED5",
"M  c #CDC6DE",
"N  c #C5CADE",
"B  c #CDCADE",
"V  c #CDCEDE",
"C  c #D5CEDE",
"Z  c #CDD2D5",
"A  c #CDD2DE",
"S  c #D5D2DE",
"D  c #D5D6DE",
"F  c #C5CAE6",
"G  c #CDCEE6",
"H  c #CDD2E6",
"J  c #CDD2EE",
"K  c #D5D2E6",
"L  c #D5D6E6",
"P  c #D5DAE6",
"I  c #D5DEE6",
"U  c #DEDAE6",
"Y  c #DEDEE6",
"T  c #D5D2EE",
"R  c #D5D6EE",
"E  c #DED2EE",
"W  c #DED6EE",
"Q  c #D5DAEE",
"!  c #DEDAEE",
"~  c #DEDEEE",
"^  c #DEDEF6",
"/  c #DEE2E6",
"(  c #DEE2EE",
")  c #D5E6FF",
"_  c #DEE6FF",
"`  c #DEEAFF",
"'  c #E6E2EE",
"]  c #E6E6EE",
"[  c #E6E6F6",
"{  c #E6EAF6",
"}  c #EEEAF6",
"|  c #EEEEF6",
" . c #E6E2FF",
".. c #E6E6FF",
"X. c #EEE6FF",
"o. c #E6EAFF",
"O. c #EEEAFF",
/* pixels */
".   .   .   .   .   .   .   .   .   .   .   ",
"_ o._ o._ o._ o._ o._ o._ ` ) ` ) ` ) ` ) ` ",
".. ... ... ... ... ... ... ... ... ... ... .",
"Q ^ Q ^ Q ^ Q ^ Q ^ Q ^ Q ! L ! L ! L ! L ! ",
"L H L K L H L K L H L K L T W E W T W E W T ",
"L ! L ! L ! L ! L ! L ! L ! L ! L ! L ! L ! ",
".. .g , ; * ; - ; ; ; = : ; ; = - * 1 f X.O.",
"l u ; t D ] ] [ ' [ ' [ ] { ] [ ' D e > r v ",
"d > 8 V ( ( ] ( ] / ] ( ] ( ' ( ' Y A 7 > p ",
"i 6 j A D L P L D L D P D P D L D L V z 3 p ",
"p r b m m Z A m A m S m A m S m A n V x t i ",
"0 y m S D U D Y U U P ! P Y P U L D A C r w ",
"q 6 A D ~ / ] ] ] ' ] ] [ ' ' ' ' I L m 6 7 ",
"i 4 t U ( | } | { } { | { } } | { [ P p 2 s ",
"l r 1 9 A ] | { | { | { } { | { { V t < r k ",
"g d 7 1 & % # $ @ $ O $ @ $ @ $ % * > w a k ",
"B v B r w 5 6 5 6 3 6 5 6 5 6 5 7 7 i G F G ",
"b V b V b V b V b V b V b B v B v B v B v B ",
"R T R J R T R J R T R J R W ! R ! W ! R ! W ",
"v B v B v B v B v B v B v N l N l N l N l N ",
"B v B M B v B M B v B M B g c h c g c h c g ",
"v B v B v B v B v B v B v v j v j v j v j v ",
"+ o + X + o + X + o + X + o + X + o + X + o "
};
