/* XPM */
static char *title_r_inactive_png[] = {
/* columns rows colors chars-per-pixel */
"6 23 29 1",
"  c #8B858B",
". c #BDBECD",
"X c #BDC2CD",
"o c #BDC6D5",
"O c #C5C6CD",
"+ c #C5C2D5",
"@ c #C5C6D5",
"# c #C5CAD5",
"$ c #C5CADE",
"% c #C5CEDE",
"& c #CDCADE",
"* c #CDCEDE",
"= c #CDD2DE",
"- c #CDD2E6",
"; c #CDD6E6",
": c #D5D2E6",
"> c #D5D6E6",
", c #D5DAE6",
"< c #D5D6EE",
"1 c #D5DAEE",
"2 c #D5DEEE",
"3 c #DEDAEE",
"4 c #DEDEEE",
"5 c #DEE2F6",
"6 c #D5E6FF",
"7 c #DEE2FF",
"8 c #DEE6FF",
"9 c #E6E6F6",
"0 c None",
/* pixels */
"  0000",
"68  00",
"7575 0",
">1<1> ",
":=:=: ",
">>;>> ",
"95959 ",
"=>=>= ",
"-*-*- ",
"*-*=* ",
"42444 ",
"%***% ",
"*$*$* ",
"%*%*% ",
"3,3,3 ",
"#$#&# ",
"$@#@$ ",
"@#@#@ ",
">->-> ",
"o@@@o ",
"+X.@. ",
"OXX@X ",
"      "
};
