/* XPM */
static char *title_active_png[] = {
/* columns rows colors chars-per-pixel */
"1 23 15 1",
"  c #797979",
". c gray86",
"X c gray88",
"o c #E6E6E6",
"O c #E7E7E7",
"+ c gray91",
"@ c gray93",
"# c #EEEEEE",
"$ c #EFEFEF",
"% c #F3F3F3",
"& c #F4F4F4",
"* c gray97",
"= c #F8F8F8",
"- c #FEFEFE",
"; c gray100",
/* pixels */
" ",
"-",
"-",
"=",
"#",
"=",
";",
"*",
"$",
"%",
"-",
"@",
"O",
"$",
"-",
"$",
"O",
"o",
"&",
"+",
".",
"X",
" "
};
