/* XPM */
static char *title_r_active_png[] = {
/* columns rows colors chars-per-pixel */
"6 23 36 1",
"  c #747474",
". c #797979",
"X c #B7B7B7",
"o c #D7D7D7",
"O c gray86",
"+ c gainsboro",
"@ c gray87",
"# c #DFDFDF",
"$ c #E1E1E1",
"% c #E2E2E2",
"& c #E4E4E4",
"* c gray90",
"= c gray91",
"- c #EAEAEA",
"; c gray92",
": c #ECECEC",
"> c gray93",
", c #EEEEEE",
"< c #EFEFEF",
"1 c gray94",
"2 c #F1F1F1",
"3 c gray95",
"4 c #F3F3F3",
"5 c #F4F4F4",
"6 c gray96",
"7 c #F6F6F6",
"8 c gray97",
"9 c #F8F8F8",
"0 c #F9F9F9",
"q c gray98",
"w c #FBFBFB",
"e c gray99",
"r c #FDFDFD",
"t c #FEFEFE",
"y c gray100",
"u c None",
/* pixels */
"..uuuu",
"y4..uu",
"ty&o.u",
">tytX.",
";0tr9.",
"4wery.",
"ytrrr.",
"070ry.",
"-;6we.",
"<<9eq.",
"yryty.",
",:5yy.",
"==1ey.",
",>2qr.",
"755ww.",
"<339q.",
"&;-29.",
"*>;28.",
":6407.",
":;2<1.",
"@+$#>.",
"##*%O.",
"..... "
};
