/* XPM */
static char *title_inactive_png[] = {
/* columns rows colors chars-per-pixel */
"5 23 32 1",
"  c #73757B",
". c #7B7D83",
"X c #83818B",
"o c #83858B",
"O c #8B8D94",
"+ c #BDBECD",
"@ c #BDC2CD",
"# c #BDC6D5",
"$ c #C5C6CD",
"% c #C5C2D5",
"& c #C5C6D5",
"* c #C5CAD5",
"= c #C5CADE",
"- c #C5CEDE",
"; c #CDCADE",
": c #CDCEDE",
"> c #CDD2DE",
", c #CDD2E6",
"< c #CDD6E6",
"1 c #D5D2E6",
"2 c #D5D6E6",
"3 c #D5DAE6",
"4 c #D5D6EE",
"5 c #D5DAEE",
"6 c #D5DEEE",
"7 c #DEDAEE",
"8 c #DEDEEE",
"9 c #DEE2F6",
"0 c #D5E6FF",
"q c #DEE2FF",
"w c #DEE6FF",
"e c #E6E6F6",
/* pixels */
"OOOOO",
"0w0w0",
"q9q9q",
"25452",
"1>1>1",
"22<22",
"e9e9e",
">2>2>",
",:,:,",
":,:>:",
"86888",
"-:::-",
":=:=:",
"-:-:-",
"73737",
"*=*;*",
"=&*&=",
"&*&*&",
"2,2,2",
"#&&&#",
"%@+&+",
"$@@&@",
".oX O"
};
