/* XPM */
static char *title_l_inactive_png[] = {
/* columns rows colors chars-per-pixel */
"6 23 30 1",
"  c #83818B",
". c #8B858B",
"X c #BDBECD",
"o c #BDC2CD",
"O c #BDC6D5",
"+ c #C5C6CD",
"@ c #C5C2D5",
"# c #C5C6D5",
"$ c #C5CAD5",
"% c #C5CADE",
"& c #C5CEDE",
"* c #CDCADE",
"= c #CDCEDE",
"- c #CDD2DE",
"; c #CDD2E6",
": c #CDD6E6",
"> c #D5D2E6",
", c #D5D6E6",
"< c #D5DAE6",
"1 c #D5D6EE",
"2 c #D5DAEE",
"3 c #D5DEEE",
"4 c #DEDAEE",
"5 c #DEDEEE",
"6 c #DEE2F6",
"7 c #D5E6FF",
"8 c #DEE2FF",
"9 c #DEE6FF",
"0 c #E6E6F6",
"q c None",
/* pixels */
"qqqq  ",
"qq  97",
"q 6868",
" ,212,",
" >->->",
" ,,:,,",
" 06060",
" -,-,-",
" ;=;=;",
" =;=-=",
" 53555",
" &===&",
" =%=%=",
" &=&=&",
" 4<4<4",
" $%$*$",
" %#$#%",
" #$#$#",
" ,;,;,",
" O###O",
" @oX#X",
" +oo#o",
"  .. ."
};
