/* XPM */
static char * close_active_xpm[] = {
"20 24 41 1",
" 	c None",
".	c #939393",
"+	c #FFFFFF",
"@	c #E3E3E3",
"#	c #E2E2E2",
"$	c #E1E1E1",
"%	c #E0E0E0",
"&	c #DFDFDF",
"*	c #DEDEDE",
"=	c #DDDDDD",
"-	c #E5C3C1",
";	c #F38E89",
">	c #FD6860",
",	c #DEDBDB",
"'	c #F28E88",
")	c #FF5F56",
"!	c #DCDCDC",
"~	c #DBDBDB",
"{	c #E3C1BF",
"]	c #DADADA",
"^	c #F18D87",
"/	c #D9D9D9",
"(	c #FC685F",
"_	c #D8D8D8",
":	c #D7D7D7",
"<	c #F08C86",
"[	c #D6D6D6",
"}	c #DFBDBB",
"|	c #D5D5D5",
"1	c #EF8B85",
"2	c #D4D4D4",
"3	c #D5D2D2",
"4	c #D3D3D3",
"5	c #DCBAB9",
"6	c #EF8A85",
"7	c #FC675F",
"8	c #D2D2D2",
"9	c #D0D0D0",
"0	c #D1D1D1",
"a	c #CFCFCF",
"b	c #CECECE",
"....................",
"++++++++++++++++++++",
"@@@@@@@@@@@@@@@@@@@@",
"####################",
"$$$$$$$$$$$$$$$$$$$$",
"%%%%%%%%%%%%%%%%%%%%",
"&&&&&&**&=&*=*&&&&&&",
"*******-;>>;-*******",
"=====,'))))))',=====",
"!!!!!'))))))))'!!!!!",
"~~~~{)))))))))){~~~~",
"]]]]^))))))))))^]]]]",
"////())))))))))(////",
"____())))))))))(____",
"::::<))))))))))<::::",
"[[[[}))))))))))}[[[[",
"|||||1))))))))1|||||",
"2222231))))))1322222",
"44444445677654444444",
"88888898444449888888",
"00000000000000000000",
"99999999999999999999",
"aaaaaaaaaaaaaaaaaaaa",
"bbbbbbbbbbbbbbbbbbbb"};
