/* XPM */
static char * close_prelight_xpm[] = {
"20 24 73 1",
" 	c None",
".	c #939393",
"+	c #FFFFFF",
"@	c #E3E3E3",
"#	c #E2E2E2",
"$	c #E1E1E1",
"%	c #E0E0E0",
"&	c #DFDFDF",
"*	c #DEDEDE",
"=	c #CEC7C7",
"-	c #C1908E",
";	c #CE6461",
">	c #DC463F",
",	c #CFC8C8",
"'	c #DDDDDD",
")	c #C3B2B2",
"!	c #CE6966",
"~	c #F34C42",
"{	c #FE574E",
"]	c #FF5F56",
"^	c #C4B3B3",
"/	c #DCDCDC",
"(	c #CDC6C6",
"_	c #CE6864",
":	c #FB544B",
"<	c #F95D55",
"[	c #FD6056",
"}	c #FF6159",
"|	c #CAC3C3",
"1	c #DBDBDB",
"2	c #C28F8D",
"3	c #F95D56",
"4	c #890905",
"5	c #971310",
"6	c #F65952",
"7	c #DADADA",
"8	c #D16461",
"9	c #961310",
"0	c #800200",
"a	c #95120F",
"b	c #D9D9D9",
"c	c #DC443E",
"d	c #F55950",
"e	c #D8D8D8",
"f	c #DD443E",
"g	c #D7D7D7",
"h	c #D46562",
"i	c #D6D6D6",
"j	c #C89290",
"k	c #D5D5D5",
"l	c #D0C9C8",
"m	c #D56D69",
"n	c #D1CAC9",
"o	c #D4D4D4",
"p	c #CEBABA",
"q	c #D56E6A",
"r	c #D56E69",
"s	c #CDBABA",
"t	c #D3D3D3",
"u	c #D8CFCF",
"v	c #D09D9A",
"w	c #D66A67",
"x	c #DD4640",
"y	c #D9D0D0",
"z	c #D2D2D2",
"A	c #E9E9E9",
"B	c #EBEBEB",
"C	c #ECECEC",
"D	c #E7E7E7",
"E	c #D1D1D1",
"F	c #D0D0D0",
"G	c #CFCFCF",
"H	c #CECECE",
"....................",
"++++++++++++++++++++",
"@@@@@@@@@@@@@@@@@@@@",
"####################",
"$$$$$$$$$$$$$$$$$$$$",
"%%%%%%%%%%$%%%%%%%%%",
"&&&&&%$%%&$$$#&&&&&&",
"*****&=-;>>;-,%*****",
"''''')!~{]]{~!^**'''",
"///&(_:<[}}[<:_|&///",
"11/*2~34566543~2/'11",
"77''8{[90aa09[{8//77",
"bb17c]}da00a6}]c1bbb",
"ee1/f]}da00a6}]f1bee",
"gg77h{[90aa09[{h17gg",
"iig7j~3496d543~j7gii",
"kkkblm:<[}}[<:mngkkk",
"oooibpq~{]]{~rs/kooo",
"tttti/uvwxxwvy'ktttt",
"zzzzzo/@ABCD@7tzzzzz",
"EEEEEEzoe71gozEEEEEE",
"FFFFFFFFFFFFFFFFFFFF",
"GGGGGGGGGGGGGGGGGGGG",
"HHHHHHHHHHHHHHHHHHHH"};
