/* XPM */
static char * hide_prelight_xpm[] = {
"20 24 68 1",
" 	c None",
".	c #939393",
"+	c #FFFFFF",
"@	c #E3E3E3",
"#	c #E2E2E2",
"$	c #E1E1E1",
"%	c #E0E0E0",
"&	c #DFDFDF",
"*	c #DEDEDE",
"=	c #CECBC6",
"-	c #C2AD89",
";	c #CFA352",
">	c #DA9D23",
",	c #CDCAC5",
"'	c #DDDDDD",
")	c #C3BBB0",
"!	c #CFA557",
"~	c #F2AD19",
"{	c #FDB824",
"]	c #FFC02C",
"^	c #C4BCB0",
"/	c #DCDCDC",
"(	c #CCC9C4",
"_	c #CEA456",
":	c #FAB51F",
"<	c #FFC330",
"[	c #FFC12F",
"}	c #DBDBDB",
"|	c #C2AC88",
"1	c #FFC02F",
"2	c #FFBF2F",
"3	c #DADADA",
"4	c #D1A452",
"5	c #FFBE2F",
"6	c #FFBD2E",
"7	c #D9D9D9",
"8	c #DA9E22",
"9	c #B1730B",
"0	c #995901",
"a	c #995700",
"b	c #D8D8D8",
"c	c #DB9E22",
"d	c #D7D7D7",
"e	c #D3A753",
"f	c #D6D6D6",
"g	c #C8B38B",
"h	c #C7B28A",
"i	c #D5D5D5",
"j	c #CFCCC5",
"k	c #D4AB5A",
"l	c #D1CEC7",
"m	c #D4D4D4",
"n	c #CCC6B6",
"o	c #CBC5B4",
"p	c #D3D3D3",
"q	c #D8D5CE",
"r	c #CFBB90",
"s	c #D5AA55",
"t	c #DB9F23",
"u	c #CEBA90",
"v	c #D2D2D2",
"w	c #E9E9E9",
"x	c #EBEBEB",
"y	c #E8E8E8",
"z	c #D1D1D1",
"A	c #D0D0D0",
"B	c #CFCFCF",
"C	c #CECECE",
"....................",
"++++++++++++++++++++",
"@@@@@@@@@@@@@@@@@@@@",
"####################",
"$$$$$$$$$$$$$$$$$$$$",
"%%%%%%%%%%$%%%%%%%%%",
"&&&&&&%$%%%$$%%&&&&&",
"*****%=-;>>;-,&'****",
"''''%)!~{]]{~!^&''''",
"///*(_:<[[[[<:_,*///",
"}}//|~<[1221[<~|*}}}",
"33}}4{[156651[{4/}33",
"773/8]90aaaa09]8/777",
"bb73c]90aaaa09]c73bb",
"dd7'e{[156651[{e37dd",
"ffb/g~<[1221[<~h}dff",
"iiifjk:<[[[[<:kl7iii",
"mmmf}nk~{]]{~ko7fmmm",
"ppppi/qrsttsuq/ipppp",
"vvvvvm/@wxxy#3mvvvvv",
"zzzzzzvpf73bivzzzzzz",
"AAAAAAAAAAAAAAAAAAAA",
"BBBBBBBBBBBBBBBBBBBB",
"CCCCCCCCCCCCCCCCCCCC"};
