/* XPM */
static char * hide_active_xpm[] = {
"20 24 40 1",
" 	c None",
".	c #939393",
"+	c #FFFFFF",
"@	c #E3E3E3",
"#	c #E2E2E2",
"$	c #E1E1E1",
"%	c #E0E0E0",
"&	c #DFDFDF",
"*	c #DEDEDE",
"=	c #E5D7B9",
"-	c #F3C970",
";	c #FDBF3A",
">	c #DDDDDD",
",	c #DEDCDA",
"'	c #F2C96F",
")	c #FFBD2E",
"!	c #DCDCDC",
"~	c #DBDBDB",
"{	c #E3D5B6",
"]	c #DADADA",
"^	c #F1C86E",
"/	c #D9D9D9",
"(	c #FCBF3A",
"_	c #D8D8D8",
":	c #D7D7D7",
"<	c #F0C76D",
"[	c #D6D6D6",
"}	c #DFD1B2",
"|	c #D5D5D5",
"1	c #EFC66C",
"2	c #D4D4D4",
"3	c #D5D4D1",
"4	c #D3D3D3",
"5	c #DCCEB0",
"6	c #EFC56B",
"7	c #D2D2D2",
"8	c #D1D1D1",
"9	c #D0D0D0",
"0	c #CFCFCF",
"a	c #CECECE",
"....................",
"++++++++++++++++++++",
"@@@@@@@@@@@@@@@@@@@@",
"####################",
"$$$$$$$$$$$$$$$$$$$$",
"%%%%%%%%%%%%%%%%%%%%",
"&&&&&&&&&&&&&&&&&&&&",
"*******=-;;-=*******",
">>>>>,'))))))',>>>>>",
"!!!!!'))))))))'!!!!!",
"~~~~{)))))))))){~~~~",
"]]]]^))))))))))^]]]]",
"////())))))))))(////",
"____())))))))))(____",
"::::<))))))))))<::::",
"[[[[}))))))))))}[[[[",
"|||||1))))))))1|||||",
"2222231))))))1322222",
"444444456((654444444",
"77777777777777777777",
"88888888888888888888",
"99999999999999999999",
"00000000000000000000",
"aaaaaaaaaaaaaaaaaaaa"};
