/* XPM */
static char * maximize_active_xpm[] = {
"20 24 43 1",
" 	c None",
".	c #939393",
"+	c #FFFFFF",
"@	c #E3E3E3",
"#	c #E2E2E2",
"$	c #E1E1E1",
"%	c #E0E0E0",
"&	c #DFDFDF",
"*	c #DEDEDE",
"=	c #B7DABC",
"-	c #6BD17A",
";	c #34CA4A",
">	c #DDDDDD",
",	c #DADDDB",
"'	c #6BD07A",
")	c #27C93F",
"!	c #DCDCDC",
"~	c #6AD079",
"{	c #DBDBDB",
"]	c #B5D7BA",
"^	c #DADADA",
"/	c #6ACF79",
"(	c #D9D9D9",
"_	c #D8D8D8",
":	c #33CA4A",
"<	c #D7D7D7",
"[	c #69CE78",
"}	c #D6D6D6",
"|	c #B1D3B6",
"1	c #D5D5D5",
"2	c #68CD77",
"3	c #D4D4D4",
"4	c #D1D4D2",
"5	c #67CD77",
"6	c #D3D3D3",
"7	c #AFD1B4",
"8	c #67CD76",
"9	c #33CA49",
"0	c #D2D2D2",
"a	c #D1D1D1",
"b	c #D0D0D0",
"c	c #CFCFCF",
"d	c #CECECE",
"....................",
"++++++++++++++++++++",
"@@@@@@@@@@@@@@@@@@@@",
"####################",
"$$$$$$$$$$$$$$$$$$$$",
"%%%%%%%%%%%%%%%%%%%%",
"&&**************&&&&",
"*******=-;;-=*******",
">>>>>,'))))))',>>>>>",
"!!!!!~))))))))~!!!!!",
"{{{{]))))))))))]{{{{",
"^^^^/))))))))))/^^^^",
"((((;))))))))));((((",
"____:)))))))))):____",
"<<<<[))))))))))[<<<<",
"}}}}|))))))))))|}}}}",
"111112))))))))211111",
"3333345))))))5433333",
"66666667899876666666",
"00000000000000000000",
"aaaaaaaaaaaaaaaaaaaa",
"bbbbbbbbbbbbbbbbbbbb",
"cccccccccccccccccccc",
"dddddddddddddddddddd"};
