/* XPM */
static char * maximize_prelight_xpm[] = {
"20 24 79 1",
" 	c None",
".	c #939393",
"+	c #FFFFFF",
"@	c #E3E3E3",
"#	c #E2E2E2",
"$	c #E1E1E1",
"%	c #E0E0E0",
"&	c #DFDFDF",
"*	c #DEDEDE",
"=	c #CACBC8",
"-	c #8FB28C",
";	c #52AB58",
">	c #1EAA2C",
",	c #1EA92C",
"'	c #8DB18B",
")	c #CBCCC9",
"!	c #DDDDDD",
"~	c #B6BEB3",
"{	c #57AC5D",
"]	c #11BA2B",
"^	c #1CC436",
"/	c #25CC3E",
"(	c #B5BCB1",
"_	c #DCDCDC",
":	c #C8CAC6",
"<	c #56AB5B",
"[	c #1AC133",
"}	c #29CF42",
"|	c #29CE42",
"1	c #29CD42",
"2	c #56AB5C",
"3	c #C9CBC7",
"4	c #DBDBDB",
"5	c #8EB18A",
"6	c #21BB36",
"7	c #026D05",
"8	c #006500",
"9	c #006600",
"0	c #0A8010",
"a	c #DADADA",
"b	c #52AC58",
"c	c #28CA40",
"d	c #20B936",
"e	c #026C05",
"f	c #016400",
"g	c #D9D9D9",
"h	c #1DA92C",
"i	c #27C93F",
"j	c #20B835",
"k	c #D8D8D8",
"l	c #1DAA2C",
"m	c #D7D7D7",
"n	c #54AE59",
"o	c #D6D6D6",
"p	c #92B68E",
"q	c #D5D5D5",
"r	c #CACDC8",
"s	c #5CB160",
"t	c #CBCEC9",
"u	c #D4D4D4",
"v	c #BFC8BA",
"w	c #BDC5B8",
"x	c #D3D3D3",
"y	c #D3D7D0",
"z	c #9ABE95",
"A	c #57B15B",
"B	c #1EAB2D",
"C	c #9ABF96",
"D	c #D2D6CF",
"E	c #D2D2D2",
"F	c #E4E4E4",
"G	c #E9E9E9",
"H	c #ECECEC",
"I	c #E8E8E8",
"J	c #E5E5E5",
"K	c #D1D1D1",
"L	c #D0D0D0",
"M	c #CFCFCF",
"N	c #CECECE",
"....................",
"++++++++++++++++++++",
"@@@@@@@@@@@@@@@@@@@@",
"####################",
"$$$$$$$$$$$$$$$$$$$$",
"%%%%%%%&&%$%$%%%%%%%",
"&&&&&%%$%$$$$&&&&&&&",
"*****&=-;>,;')!*****",
"!!!**~{]^//^]{(&!!!!",
"___*:<[}|11|}[23%___",
"44__5]}|67890}]5*444",
"aaa_b^|6cdef9|^b_aaa",
"gg!_h/17dije81/h__gg",
"kkkal/18ejid71/l_kkk",
"mma4n^|9fedc6|^n4gmm",
"oom4p]}09876|}]p_moo",
"qqqgrs[}|11|}[stgqqq",
"uuuqkvs]^//^]swaquuu",
"xxxxq_yzABBACD_qxxxx",
"EEEEExaFGHHIJauEEEEE",
"KKKKKKEqk4_mqEKKKKKK",
"LLLLLLLLLLLLLLLLLLLL",
"MMMMMMMMMMMMMMMMMMMM",
"NNNNNNNNNNNNNNNNNNNN"};
