/* XPM */
static char * close_inactive_xpm[] = {
"20 24 25 1",
" 	c None",
".	c #939393",
"+	c #FFFFFF",
"@	c #E3E3E3",
"#	c #E2E2E2",
"$	c #E1E1E1",
"%	c #E0E0E0",
"&	c #DFDFDF",
"*	c #DEDEDE",
"=	c #DDDDDD",
"-	c #D4D4D4",
";	c #CFCFCF",
">	c #D5D5D5",
",	c #D6D6D6",
"'	c #DADADA",
")	c #DCDCDC",
"!	c #DBDBDB",
"~	c #D9D9D9",
"{	c #D0D0D0",
"]	c #D8D8D8",
"^	c #D7D7D7",
"/	c #D3D3D3",
"(	c #D2D2D2",
"_	c #D1D1D1",
":	c #CECECE",
"....................",
"++++++++++++++++++++",
"@@@@@@@@@@@@@@@@@@@@",
"####################",
"$$$$$$$$$$$$$$$$$$$$",
"%%%%%%%%%%%%%%%%%%%%",
"&&&&&&&&&&&&&&&&&&&&",
"*******=-;;-=*******",
"=====*>,'**',>*=====",
")))))>'%%&&%%'>)))))",
"!!!!!,%&****&%,!!!!!",
"''''-'%*====*%'-''''",
"~~~~{*&*=))=*&*{~~~~",
"]]]]{*&*=))=*&*{]]]]",
"^^^^-'%*====*%'-^^^^",
",,,,',%&****&%,',,,,",
">>>>>>'%%&&%%'>>>>>>",
"-----^>,'**',>^-----",
"///////'/;;/'///////",
"((((((((((((((((((((",
"____________________",
"{{{{{{{{{{{{{{{{{{{{",
";;;;;;;;;;;;;;;;;;;;",
"::::::::::::::::::::"};
