/* XPM */
static char * menu_pressed_xpm[] = {
"20 24 40 1",
" 	c None",
".	c #939393",
"+	c #FFFFFF",
"@	c #E3E3E3",
"#	c #E2E2E2",
"$	c #E1E1E1",
"%	c #E0E0E0",
"&	c #DFDFDF",
"*	c #DEDEDE",
"=	c #DDDDDD",
"-	c #DCDCDC",
";	c #DBDBDB",
">	c #DADADA",
",	c #5F5F5F",
"'	c #343434",
")	c #636363",
"!	c #D9D9D9",
"~	c #EAEAEA",
"{	c #454545",
"]	c #696969",
"^	c #ECECEC",
"/	c #D8D8D8",
"(	c #E5E5E5",
"_	c #E4E4E4",
":	c #585858",
"<	c #4E4E4E",
"[	c #D7D7D7",
"}	c #E6E6E6",
"|	c #D4D4D4",
"1	c #5B5B5B",
"2	c #D6D6D6",
"3	c #BEBEBE",
"4	c #D5D5D5",
"5	c #EDEDED",
"6	c #D3D3D3",
"7	c #D2D2D2",
"8	c #D1D1D1",
"9	c #D0D0D0",
"0	c #CFCFCF",
"a	c #CECECE",
"....................",
"++++++++++++++++++++",
"@@@@@@@@@@@@@@@@@@@@",
"####################",
"$$$$$$$$$$$$$$$$$$$$",
"%%%%%%%%%%%%%%%%%%%%",
"&&&&&&&&&&&&&&&&&&&&",
"********************",
"====================",
"--------------------",
";;;;;;;;;;;;;;;;;;;;",
">>>>>>,'''''')>>>>>>",
"!!!!!!~,{{{{]^!!!!!!",
"//////(_:<<)~///////",
"[[[[[[[}|1)_([[[[[[[",
"22222222~3/}22222222",
"4444444445}444444444",
"||||||||||||||||||||",
"66666666666666666666",
"77777777777777777777",
"88888888888888888888",
"99999999999999999999",
"00000000000000000000",
"aaaaaaaaaaaaaaaaaaaa"};
