/* XPM */
static char * menu_prelight_xpm[] = {
"20 24 33 1",
" 	c None",
".	c #939393",
"+	c #FFFFFF",
"@	c #E3E3E3",
"#	c #E2E2E2",
"$	c #E1E1E1",
"%	c #E0E0E0",
"&	c #DFDFDF",
"*	c #DEDEDE",
"=	c #DDDDDD",
"-	c #DCDCDC",
";	c #DBDBDB",
">	c #DADADA",
",	c #84A8C3",
"'	c #D9D9D9",
")	c #EAEAEA",
"!	c #ECECEC",
"~	c #D8D8D8",
"{	c #E5E5E5",
"]	c #E4E4E4",
"^	c #D7D7D7",
"/	c #E6E6E6",
"(	c #D4D4D4",
"_	c #D6D6D6",
":	c #BEBEBE",
"<	c #D5D5D5",
"[	c #EDEDED",
"}	c #D3D3D3",
"|	c #D2D2D2",
"1	c #D1D1D1",
"2	c #D0D0D0",
"3	c #CFCFCF",
"4	c #CECECE",
"....................",
"++++++++++++++++++++",
"@@@@@@@@@@@@@@@@@@@@",
"####################",
"$$$$$$$$$$$$$$$$$$$$",
"%%%%%%%%%%%%%%%%%%%%",
"&&&&&&&&&&&&&&&&&&&&",
"********************",
"====================",
"--------------------",
";;;;;;;;;;;;;;;;;;;;",
">>>>>>,,,,,,,,>>>>>>",
"''''''),,,,,,!''''''",
"~~~~~~{],,,,)~~~~~~~",
"^^^^^^^/(,,]{^^^^^^^",
"________):~/________",
"<<<<<<<<<[/<<<<<<<<<",
"((((((((((((((((((((",
"}}}}}}}}}}}}}}}}}}}}",
"||||||||||||||||||||",
"11111111111111111111",
"22222222222222222222",
"33333333333333333333",
"44444444444444444444"};
