/* XPM */
static char * menu_inactive_xpm[] = {
"20 24 37 1",
" 	c None",
".	c #939393",
"+	c #FFFFFF",
"@	c #E3E3E3",
"#	c #E2E2E2",
"$	c #E1E1E1",
"%	c #E0E0E0",
"&	c #DFDFDF",
"*	c #DEDEDE",
"=	c #DDDDDD",
"-	c #DCDCDC",
";	c #DBDBDB",
">	c #DADADA",
",	c #C2C2C2",
"'	c #B4B4B4",
")	c #C4C4C4",
"!	c #D9D9D9",
"~	c #E7E7E7",
"{	c #CCCCCC",
"]	c #CFCFCF",
"^	c #D8D8D8",
"/	c #E5E5E5",
"(	c #C9C9C9",
"_	c #C7C7C7",
":	c #CDCDCD",
"<	c #E9E9E9",
"[	c #D7D7D7",
"}	c #CBCBCB",
"|	c #D6D6D6",
"1	c #E6E6E6",
"2	c #D5D5D5",
"3	c #D4D4D4",
"4	c #D3D3D3",
"5	c #D2D2D2",
"6	c #D1D1D1",
"7	c #D0D0D0",
"8	c #CECECE",
"....................",
"++++++++++++++++++++",
"@@@@@@@@@@@@@@@@@@@@",
"####################",
"$$$$$$$$$$$$$$$$$$$$",
"%%%%%%%%%%%%%%%%%%%%",
"&&&&&&&&&&&&&&&&&&&&",
"********************",
"====================",
"--------------------",
";;;;;;;;;;;;;;;;;;;;",
">>>>>>,'''''')>>>>>>",
"!!!!!!~{))))]~!!!!!!",
"^^^^^^/~(__:<^^^^^^^",
"[[[[[[[/@}:~/[[[[[[[",
"||||||||~-/1||||||||",
"222222222~@222222222",
"33333333333333333333",
"44444444444444444444",
"55555555555555555555",
"66666666666666666666",
"77777777777777777777",
"]]]]]]]]]]]]]]]]]]]]",
"88888888888888888888"};
