/* XPM */
static char * bottom_right_inactive_xpm[] = {
"4 20 3 1",
" 	c #514F4D",
".	c #343230",
"+	c #000000",
" . +",
" . +",
" . +",
" . +",
" . +",
" . +",
" . +",
" . +",
" . +",
" . +",
" . +",
" . +",
" . +",
" . +",
" . +",
" . +",
" . +",
".. +",
"   +",
"++++"};
