/* XPM */
static char * bottom_inactive_xpm[] = {
"20 4 3 1",
" 	c #514F4D",
".	c #343230",
"+	c #000000",
"                    ",
"....................",
"                    ",
"++++++++++++++++++++"};
