/* XPM */
static char * bottom_left_active_xpm[] = {
"4 20 3 1",
" 	c #000000",
".	c #514F4D",
"+	c #343230",
" .+.",
" .+.",
" .+.",
" .+.",
" .+.",
" .+.",
" .+.",
" .+.",
" .+.",
" .+.",
" .+.",
" .+.",
" .+.",
" .+.",
" .+.",
" .+.",
" .+.",
" .++",
" ...",
"    "};
