/* XPM */
static char * left_active_xpm[] = {
"4 20 4 1",
" 	c None",
".	c #000000",
"+	c #514F4D",
"@	c #343230",
".+@+",
".+@+",
".+@+",
".+@+",
".+@+",
".+@+",
".+@+",
".+@+",
".+@+",
".+@+",
".+@+",
".+@+",
".+@+",
".+@+",
".+@+",
".+@+",
".+@+",
".+@+",
".+@+",
".+@+"};
