/* XPM */
static char * menu_pressed_xpm[] = {
"10 10 21 1",
" 	c None",
".	c #54595A",
"+	c #74858A",
"@	c #7F959B",
"#	c #657174",
"$	c #859CA4",
"%	c #849BA3",
"&	c #859CA3",
"*	c #7F949B",
"=	c #7B8F95",
"-	c #535959",
";	c #788B90",
">	c #7A8D93",
",	c #78898F",
"'	c #82989F",
")	c #7B8E94",
"!	c #99B7C1",
"~	c #8399A0",
"{	c #7F949A",
"]	c #7B8E95",
"^	c #80959C",
"  .+@@+.  ",
" #$$$$$$# ",
".%&*==*&%-",
";$*>>>>*$,",
"'$)>!!>)$'",
"'$)>!!>)$~",
";$*>>>>{$,",
".%&{]]{&%-",
" #$$$$$$# ",
"  .+^^+.  "};
