/* XPM */
static char * menu_active_xpm[] = {
"10 10 19 1",
" 	c None",
".	c #555B5C",
"+	c #5B6465",
"@	c #4D5151",
"#	c #5F686B",
"$	c #5E686A",
"%	c #5E676A",
"&	c #4E5152",
"*	c #41413F",
"=	c #575E5F",
"-	c #4E5151",
";	c #575D5F",
">	c #5D6668",
",	c #41403E",
"'	c #99B7C1",
")	c #5D6669",
"!	c #4D5050",
"~	c #41403F",
"{	c #5C6466",
"   .++.   ",
" @######@ ",
" $%&**&%$ ",
"=#-    -#;",
">#, '' ,#>",
">#, '' ,#)",
"=#-    !#;",
" $%!~~!%$ ",
" @######@ ",
"   .{{.   "};
