/* XPM */
static char * right_inactive_xpm[] = {
"4 20 4 1",
" 	c None",
".	c #514F4D",
"+	c #343230",
"@	c #000000",
".+.@",
".+.@",
".+.@",
".+.@",
".+.@",
".+.@",
".+.@",
".+.@",
".+.@",
".+.@",
".+.@",
".+.@",
".+.@",
".+.@",
".+.@",
".+.@",
".+.@",
".+.@",
".+.@",
".+.@"};
