/* XPM */
static char * top_right_inactive_xpm[] = {
"5 22 19 1",
" 	c #000000",
".	c #514F4D",
"+	c #343230",
"@	c #474645",
"#	c #474545",
"$	c #464544",
"%	c #454443",
"&	c #454442",
"*	c #444241",
"=	c #434240",
"-	c #43403F",
";	c #423F3E",
">	c #403F3D",
",	c #403E3C",
"'	c #403D3C",
")	c #3F3D3B",
"!	c #353331",
"~	c #544D50",
"{	c #3E3C3A",
"     ",
".... ",
"+++. ",
"..+. ",
"@.+. ",
"@.+. ",
"#.+. ",
"$.+. ",
"%.+. ",
"&.+. ",
"*.+. ",
"=.+. ",
"-.+. ",
";.+. ",
">.+. ",
",.+. ",
"'.+. ",
").+. ",
"..+. ",
"+++. ",
"..!~ ",
"{.+. "};
